<svg width="15" height="17" viewBox="0 0 15 17" fill="none" xmlns="http://www.w3.org/2000/svg">
<path d="M14.4794 6.01281C14.1924 5.78625 13.855 5.67377 13.5124 5.56289C12.2222 5.1454 10.5451 4.66466 9.22654 4.37806C8.93073 4.31361 8.65774 4.27238 8.35193 4.296C7.12907 4.38927 6.00028 5.68618 4.95635 6.25257C4.87749 6.26658 4.90711 6.23856 4.8883 6.20134C4.50483 5.44361 4.84186 4.46212 5.6012 4.10066C5.93423 3.94175 6.57028 4.013 6.53305 3.52106C6.51224 3.24807 6.33331 2.89502 6.33131 2.55758C6.3117 -0.664681 11.2484 -0.741935 11.3264 2.47953C11.332 2.71569 11.1843 3.12358 11.5234 3.23846C11.8616 3.35334 12.0385 3.26728 12.3047 3.61552C12.5289 3.90853 12.4188 4.06864 12.5012 4.33763C12.6081 4.68587 12.99 4.53897 13.2201 4.53337C14.0755 4.51335 14.6335 5.18062 14.4794 6.01281Z" fill="black"/>
<path d="M13.5304 6.38347C12.0829 6.03722 10.6319 5.50525 9.18651 5.17702C8.85908 5.10257 8.58449 5.05814 8.24145 5.10457C7.94204 5.145 7.67225 5.32672 7.42408 5.48444C5.33861 6.81097 3.35642 8.44491 1.28537 9.80787C0.905902 10.1721 0.741787 10.628 0.705761 11.1452C0.628107 12.2608 0.640516 13.5537 1.83615 14.0476C3.52294 14.6613 5.21893 15.7108 6.8941 16.2964C7.57738 16.5354 8.19101 16.4653 8.75141 15.9986L14.2605 10.4463C15.0871 9.37236 15.0714 6.8662 13.5304 6.38347ZM5.81495 7.38977C6.67435 6.76373 7.55937 5.719 8.68216 5.62533C9.07884 5.59211 10.0859 5.7206 9.76332 6.34704C9.5896 6.68448 9.26537 6.45632 9.0196 6.42229C7.92323 6.27099 7.14708 7.52627 6.3233 7.97779C5.90981 8.20394 5.55957 7.76764 5.81495 7.38977ZM8.0277 13.6374C7.25556 13.9724 5.35262 13.2675 4.56727 12.9529C3.7591 12.629 1.80413 11.8149 1.67404 10.855C1.6172 10.4383 1.95064 9.88552 2.40335 9.90674C2.59909 9.91595 2.73318 10.0813 2.73999 10.2702C2.74799 10.4968 2.49302 10.614 2.4674 10.7137C2.43498 10.8386 2.67074 11.0435 2.76241 11.1236C3.52134 11.7873 6.19121 12.842 7.19392 12.9217C7.44369 12.9413 7.91642 12.844 8.09375 12.9004C8.42398 13.0049 8.37394 13.4869 8.0277 13.6374ZM13.6633 7.97138C13.5348 8.67828 11.9136 10.1313 11.3464 10.6865C10.7304 11.2901 10.0499 11.9778 9.40987 12.5434C9.32941 12.6142 9.05842 12.8572 8.98117 12.8744C8.67976 12.9413 8.41237 12.6579 8.50844 12.3609C9.54957 11.2657 10.6736 10.2402 11.7439 9.16702C12.1042 8.80517 12.6185 8.4265 12.8379 7.94456C13.054 7.46823 12.7806 7.55349 12.7002 7.25088C12.6469 7.04993 12.785 6.81977 12.9924 6.78014C13.5816 6.66646 13.7421 7.53708 13.6633 7.97138Z" fill="black"/>
<path d="M3.57337 3.17882C1.67324 3.20243 1.68365 0.398466 3.52534 0.372047C5.33941 0.346429 5.39385 3.1564 3.57337 3.17882Z" fill="black"/>
<path d="M1.81854 6.20734C0.968346 5.98639 0.984757 4.52616 1.81574 4.33603C3.63222 3.92054 3.52814 6.65005 1.81854 6.20734Z" fill="black"/>
</svg>
