<svg width="22" height="17" viewBox="0 0 22 17" fill="none" xmlns="http://www.w3.org/2000/svg">
<path d="M5.08378 15.2052C5.08378 15.3376 4.98375 15.5032 4.88372 15.5694L4.01682 16.2979C3.9168 16.3641 3.78343 16.4304 3.6834 16.4304C3.51669 16.4304 3.38332 16.3641 3.2833 16.2648L0.549231 13.1853C0.415862 13.0529 0.349178 12.8873 0.38252 12.7548C0.38252 12.6224 0.482547 12.4568 0.582574 12.3906L1.48281 11.6952C1.68287 11.4966 2.01629 11.5297 2.21634 11.7284L4.95041 14.8078C5.05043 14.9072 5.11712 15.0396 5.08378 15.2052Z" fill="black"/>
<path d="M20.9547 9.57602C20.9213 9.60913 20.8213 9.80781 20.2878 10.0727C20.1211 10.172 16.0534 12.1257 14.653 12.9866C14.1529 13.2846 13.586 13.4171 13.0192 13.2846C12.9859 13.2846 7.88453 12.4899 5.21715 14.0793L3.08324 11.6952C3.88346 11.3641 4.98375 10.8343 5.91733 10.3045C7.65113 9.27801 7.35105 8.68198 9.58498 9.17867C13.6861 10.172 14.0528 9.70847 14.653 10.0065C15.0865 10.2383 14.9197 10.5363 14.8864 10.735C14.8864 10.735 14.8531 10.8012 14.7864 10.8012C14.653 10.9005 14.2196 11.1323 12.9859 10.9668C12.7858 10.9336 10.852 10.8012 9.95174 11.4303C9.78503 11.5297 9.75169 11.7615 9.85172 11.8939C9.95175 12.0595 10.1851 12.0926 10.3185 11.9932C10.9187 11.5959 12.3857 11.5959 12.8859 11.6621C14.2196 11.8608 15.6533 11.7283 15.5866 10.4038L20.0211 9.21178C20.0211 9.21178 20.7546 9.04622 20.9547 9.57602Z" fill="black"/>
<path d="M9.85172 6.09919L9.95174 4.74158C9.95174 4.57601 9.81838 4.41045 9.65166 4.37734C9.45161 4.37734 9.31824 4.50979 9.2849 4.67535L9.21822 5.47005L7.45108 3.71508C7.31771 3.58263 7.11765 3.58263 6.98428 3.71508C6.85092 3.84753 6.85092 4.04621 6.98428 4.17866L8.71808 5.90052L8.01789 5.93363C7.85118 5.93363 7.68447 6.09919 7.68447 6.26476C7.68447 6.43032 7.85118 6.59588 8.01789 6.59588L9.31824 6.52966L11.7522 8.94688C9.18487 8.51642 8.55137 8.01973 7.35105 8.4833C4.85038 6.629 3.34998 3.64886 3.34998 0.436931C3.34998 0.238255 3.48335 0.105804 3.6834 0.105804C6.41747 0.105804 8.95148 1.16541 10.8853 3.08594C12.019 4.21177 12.8525 5.53628 13.3527 7.02635C13.0526 7.62238 12.8192 8.25152 12.6858 8.91377L9.85172 6.09919Z" fill="black"/>
<path d="M12.6525 9.7747H12.5524V9.70847C12.5858 9.70847 12.5191 9.67536 12.6525 9.7747Z" fill="black"/>
<path d="M21.6549 3.05283C21.6549 5.17204 20.8213 7.19191 19.3876 8.68198L15.3865 9.7747C15.3198 9.70847 15.2865 9.64225 15.2198 9.60913L16.8202 8.01973L17.8205 8.05284C17.9872 8.05284 18.1539 7.92039 18.1539 7.72171C18.1539 7.55615 18.0206 7.39059 17.8205 7.39059L17.4204 7.35747L18.6874 6.09919C18.8208 5.96674 18.8208 5.76807 18.6874 5.63562C18.554 5.50317 18.354 5.50317 18.2206 5.63562L16.9536 6.92701L16.9203 6.43032C16.9203 6.23164 16.7536 6.09919 16.5535 6.13231C16.3868 6.13231 16.2201 6.29787 16.2534 6.49654L16.3535 7.55615L14.5863 9.31112C14.2196 9.21178 14.1529 9.27801 13.3193 9.21178C13.6527 7.65549 14.4196 6.26476 15.5532 5.13893C17.1203 3.58263 19.1875 2.75482 21.3548 2.75482C21.5215 2.7217 21.6549 2.85415 21.6549 3.05283Z" fill="black"/>
</svg>
