<svg width="113" height="38" viewBox="0 0 113 38" fill="none" xmlns="http://www.w3.org/2000/svg">
<path d="M12.3003 6.09357L11.9416 10.843C12.9308 10.4051 13.9086 9.94448 14.8751 9.46123V4.78351C14.0256 5.24033 13.1686 5.67828 12.3003 6.09357ZM31.1433 10.239C28.727 9.51409 26.341 8.6533 24.0078 7.67169C24.2003 9.18563 24.4193 10.843 24.6269 12.3985C25.7973 12.8478 26.9828 13.2706 28.1758 13.6595C26.794 20.1909 23.3886 26.2165 18.5146 30.8074C17.8501 31.4341 17.1554 32.0344 16.4381 32.6082C15.717 32.0344 15.0223 31.4341 14.3579 30.8036C9.48759 26.2089 6.0784 20.1834 4.6966 13.6368C5.88963 13.2442 7.0751 12.8213 8.24925 12.3721C8.46068 10.8166 8.67587 9.15542 8.8722 7.64526C6.53522 8.63064 4.14917 9.49144 1.72536 10.2201L0 10.7373L0.271829 12.5231C1.76689 22.2334 7.21479 31.1207 15.2224 36.8971L16.4381 37.7768L17.6538 36.8971C25.6576 31.1207 31.1055 22.2447 32.6006 12.542L32.8724 10.7562L31.1433 10.239ZM20.5722 6.12378C19.7038 5.70471 18.8468 5.27054 17.9973 4.81749V9.48388C18.9638 9.96714 19.9417 10.4277 20.9308 10.8657L20.5722 6.12378Z" fill="url(#paint0_linear_1963_100)"/>
<path d="M21.2041 23.4868C18.516 24.6458 18.516 27.0885 18.516 27.0885V30.8073C17.8515 31.434 17.1568 32.0343 16.4395 32.6081C15.7184 32.0343 15.0237 31.434 14.3593 30.8035V27.0885C14.3593 27.0885 14.3593 24.6458 11.6712 23.4868C8.98308 22.3277 6.96702 20.9195 7.63904 16.642C7.81648 15.5207 8.03168 14.003 8.25065 12.372C8.46207 10.8165 8.67727 9.15534 8.87359 7.64518C9.1794 5.23647 9.42858 3.20531 9.50786 2.56349C9.53806 2.28411 9.63245 2.01606 9.79479 1.78953C9.99866 1.50638 10.3536 1.22322 10.935 1.22322C10.9991 1.22322 11.0633 1.227 11.1237 1.23455C11.9921 1.32893 12.5999 2.15575 12.5357 3.03164L12.3017 6.09349L11.943 10.8429L11.6561 14.6146C11.6108 15.2186 11.8222 15.8303 12.2752 16.2342C12.5206 16.4532 12.8415 16.6231 13.2417 16.6231C13.5589 16.6231 13.8231 16.5287 14.0421 16.4003C14.5782 16.0794 14.8765 15.4791 14.8765 14.8524V2.94858C14.8765 2.09534 15.5485 1.37046 16.4017 1.35536H16.4735C17.3267 1.37046 17.9987 2.09534 17.9987 2.94858V14.8524C17.9987 15.4791 18.2932 16.0794 18.8293 16.4003C19.0483 16.5287 19.3201 16.6231 19.6373 16.6231C20.0337 16.6231 20.3508 16.4532 20.6 16.2342C21.053 15.8303 21.2645 15.2186 21.2154 14.6146L20.9322 10.8656L20.5736 6.12369L20.3395 3.03164C20.2715 2.15575 20.8794 1.32893 21.7515 1.23455C21.8157 1.227 21.8761 1.22322 21.9403 1.22322C22.5254 1.22322 22.8728 1.50638 23.0767 1.78953C23.2428 2.01606 23.3334 2.28411 23.3674 2.56349C23.4466 3.20908 23.6996 5.25157 24.0092 7.67161C24.2017 9.18554 24.4207 10.8429 24.6283 12.3984C24.8473 14.0181 25.0625 15.5282 25.2362 16.642C25.9082 20.9195 23.8921 22.3277 21.2041 23.4868Z" fill="url(#paint1_linear_1963_100)"/>
<g filter="url(#filter0_ddddd_1963_100)">
<path d="M14.5371 35.4228V31.4937L16.4366 33.1218L18.336 31.4937V35.4228L16.4366 37.3222L14.5371 35.4228Z" fill="#D9D9D9"/>
</g>
<g filter="url(#filter1_ddddd_1963_100)">
<path d="M24.6175 12.2233L23.9125 7.69476L20.6855 6.5016L21.1736 11.0843L24.6175 12.2233Z" fill="#D9D9D9"/>
</g>
<g filter="url(#filter2_ddddd_1963_100)">
<path d="M8.43282 12.0587L9.09731 7.79062L12.1387 6.66608L11.6787 10.9853L8.43282 12.0587Z" fill="#D9D9D9"/>
</g>
<g filter="url(#filter3_ddddd_1963_100)">
<rect x="14.9873" y="4.91861" width="2.89587" height="4.28181" fill="#D9D9D9"/>
</g>
<path d="M8.24931 12.372C8.03034 14.003 7.81514 15.5207 7.6377 16.642H25.2348C25.0612 15.5282 24.846 14.0181 24.627 12.3984C24.4194 10.8429 24.2004 9.18554 24.0078 7.67161C23.6983 5.25157 23.4453 3.20908 23.366 2.56349C23.332 2.28411 23.2414 2.01606 23.0753 1.78953C22.8714 1.50638 22.5241 1.22322 21.9389 1.22322C21.8747 1.22322 21.8143 1.227 21.7501 1.23455C20.878 1.32893 20.2702 2.15575 20.3381 3.03164L20.5722 6.12369L20.9309 10.8656L21.214 14.6146C21.2631 15.2186 21.0517 15.8303 20.5987 16.2342C20.3495 16.4532 20.0323 16.6231 19.6359 16.6231C19.3188 16.6231 19.047 16.5287 18.828 16.4003C18.2919 16.0794 17.9974 15.4791 17.9974 14.8524V2.94858C17.9974 2.09534 17.3254 1.37046 16.4721 1.35536H16.4004C15.5472 1.37046 14.8751 2.09534 14.8751 2.94858V14.8524C14.8751 15.4791 14.5769 16.0794 14.0408 16.4003C13.8218 16.5287 13.5575 16.6231 13.2404 16.6231C12.8402 16.6231 12.5193 16.4532 12.2739 16.2342C11.8208 15.8303 11.6094 15.2186 11.6547 14.6146L11.9417 10.8429L12.3003 6.09349L12.5344 3.03164C12.5986 2.15575 11.9907 1.32893 11.1224 1.23455C11.062 1.227 10.9978 1.22322 10.9336 1.22322C10.3522 1.22322 9.99732 1.50638 9.79345 1.78953C9.63111 2.01606 9.53672 2.28411 9.50652 2.56349C9.42724 3.20531 9.17806 5.23647 8.87225 7.64518C8.67593 9.15534 8.46073 10.8165 8.24931 12.372Z" fill="#74D6EF"/>
<path d="M8.24931 12.372C8.03034 14.003 7.81514 15.5207 7.6377 16.642H25.2348C25.0612 15.5282 24.846 14.0181 24.627 12.3984C24.4194 10.8429 24.2004 9.18554 24.0078 7.67161C23.6983 5.25157 23.4453 3.20908 23.366 2.56349C23.332 2.28411 23.2414 2.01606 23.0753 1.78953C22.8714 1.50638 22.5241 1.22322 21.9389 1.22322C21.8747 1.22322 21.8143 1.227 21.7501 1.23455C20.878 1.32893 20.2702 2.15575 20.3381 3.03164L20.5722 6.12369L20.9309 10.8656L21.214 14.6146C21.2631 15.2186 21.0517 15.8303 20.5987 16.2342C20.3495 16.4532 20.0323 16.6231 19.6359 16.6231C19.3188 16.6231 19.047 16.5287 18.828 16.4003C18.2919 16.0794 17.9974 15.4791 17.9974 14.8524V2.94858C17.9974 2.09534 17.3254 1.37046 16.4721 1.35536H16.4004C15.5472 1.37046 14.8751 2.09534 14.8751 2.94858V14.8524C14.8751 15.4791 14.5769 16.0794 14.0408 16.4003C13.8218 16.5287 13.5575 16.6231 13.2404 16.6231C12.8402 16.6231 12.5193 16.4532 12.2739 16.2342C11.8208 15.8303 11.6094 15.2186 11.6547 14.6146L11.9417 10.8429L12.3003 6.09349L12.5344 3.03164C12.5986 2.15575 11.9907 1.32893 11.1224 1.23455C11.062 1.227 10.9978 1.22322 10.9336 1.22322C10.3522 1.22322 9.99732 1.50638 9.79345 1.78953C9.63111 2.01606 9.53672 2.28411 9.50652 2.56349C9.42724 3.20531 9.17806 5.23647 8.87225 7.64518C8.67593 9.15534 8.46073 10.8165 8.24931 12.372Z" fill="url(#paint2_linear_1963_100)"/>
<path d="M16.4385 32.6083C17.1558 32.0344 20.8467 28.6038 21.5112 27.9771V33.4166L16.4385 37.7768L10.4805 32.6083L11.3907 27.9771C12.0551 28.6076 15.7174 32.0344 16.4385 32.6083Z" fill="#2323A5"/>
<path d="M37.2678 16.3377V14.2483H47.1129V16.3377H43.3236V27.1921H41.0571V16.3377H37.2678ZM52.2528 18.4094V20.4103H51.4559C49.8977 20.4103 48.9238 21.2425 48.9238 22.9424V27.1921H46.7636V18.4625H48.7999L48.9238 19.7374C49.2957 18.8698 50.1279 18.2855 51.2966 18.2855C51.5976 18.2855 51.8986 18.3209 52.2528 18.4094ZM58.9385 18.4448H61.0988V27.1921H59.0979L58.9385 26.0234C58.4073 26.8556 57.2741 27.4223 56.1054 27.4223C54.0868 27.4223 52.9005 26.0588 52.9005 23.9163V18.4448H55.0607V23.1549C55.0607 24.8193 55.7159 25.4922 56.9199 25.4922C58.2834 25.4922 58.9385 24.6954 58.9385 23.0309V18.4448ZM61.7759 24.536H63.8299C63.8477 25.2974 64.4143 25.7755 65.4059 25.7755C66.4152 25.7755 66.9641 25.3682 66.9641 24.7308C66.9641 24.2881 66.7339 23.9694 65.9548 23.7923L64.3789 23.4205C62.8029 23.0663 62.0415 22.3226 62.0415 20.9238C62.0415 19.2062 63.4935 18.1792 65.5121 18.1792C67.4776 18.1792 68.8056 19.3125 68.8233 21.0123H66.7693C66.7516 20.2686 66.2558 19.7905 65.4236 19.7905C64.5736 19.7905 64.0778 20.1801 64.0778 20.8353C64.0778 21.3311 64.4674 21.6498 65.2111 21.8268L66.787 22.1987C68.2567 22.5351 69.0004 23.208 69.0004 24.5537C69.0004 26.3244 67.4953 27.4223 65.335 27.4223C63.1571 27.4223 61.7759 26.2536 61.7759 24.536ZM72.9117 27.1921H70.7514V20.2509H69.0693V18.4448H70.7514V15.7179H72.9117V18.4448H74.6116V20.2509H72.9117V27.1921ZM74.4848 31.247V29.4408H75.7775C76.6274 29.4408 77.1586 29.2461 77.5304 28.2191L77.7783 27.5639L74.2547 18.4448H76.5389L78.7876 24.8193L81.1604 18.4448H83.3915L79.1064 29.1398C78.4512 30.7689 77.5304 31.4417 76.0962 31.4417C75.4941 31.4417 74.9629 31.3709 74.4848 31.247ZM84.2289 27.1921V14.2483H89.3817C91.9315 14.2483 93.4897 15.5763 93.4897 17.7365C93.4897 19.1708 92.8522 20.1978 91.6305 20.7113C92.9939 21.154 93.6845 22.181 93.6845 23.6861C93.6845 25.8995 92.144 27.1921 89.4702 27.1921H84.2289ZM89.1869 16.2491H86.4954V19.7728H89.24C90.4795 19.7728 91.1701 19.1177 91.1701 17.9667C91.1701 16.8512 90.4618 16.2491 89.1869 16.2491ZM89.3817 21.6852H86.4954V25.1912H89.3817C90.6566 25.1912 91.3649 24.5714 91.3649 23.4028C91.3649 22.3049 90.6389 21.6852 89.3817 21.6852ZM95.8158 16.6918C95.0721 16.6918 94.4878 16.1075 94.4878 15.3815C94.4878 14.6555 95.0721 14.0889 95.8158 14.0889C96.5241 14.0889 97.1084 14.6555 97.1084 15.3815C97.1084 16.1075 96.5241 16.6918 95.8158 16.6918ZM94.7357 27.1921V18.4448H96.8959V27.1921H94.7357ZM101.394 27.1921H99.2341V20.2509H97.5519V18.4448H99.2341V15.7179H101.394V18.4448H103.094V20.2509H101.394V27.1921ZM107.556 27.4223C104.953 27.4223 103.129 25.5276 103.129 22.8184C103.129 20.0739 104.917 18.1792 107.485 18.1792C110.105 18.1792 111.77 19.9322 111.77 22.6591V23.3142L105.183 23.3319C105.342 24.8724 106.157 25.6516 107.591 25.6516C108.777 25.6516 109.557 25.1912 109.804 24.3589H111.805C111.433 26.2713 109.84 27.4223 107.556 27.4223ZM107.503 19.9499C106.228 19.9499 105.449 20.6405 105.236 21.9508H109.627C109.627 20.7467 108.795 19.9499 107.503 19.9499Z" fill="#2323A5"/>
<defs>
<filter id="filter0_ddddd_1963_100" x="12.821" y="24.6292" width="7.23107" height="13.2651" filterUnits="userSpaceOnUse" color-interpolation-filters="sRGB">
<feFlood flood-opacity="0" result="BackgroundImageFix"/>
<feColorMatrix in="SourceAlpha" type="matrix" values="0 0 0 0 0 0 0 0 0 0 0 0 0 0 0 0 0 0 127 0" result="hardAlpha"/>
<feOffset/>
<feGaussianBlur stdDeviation="0.28602"/>
<feColorMatrix type="matrix" values="0 0 0 0 0 0 0 0 0 0 0 0 0 0 0 0 0 0 0.3 0"/>
<feBlend mode="normal" in2="BackgroundImageFix" result="effect1_dropShadow_1963_100"/>
<feColorMatrix in="SourceAlpha" type="matrix" values="0 0 0 0 0 0 0 0 0 0 0 0 0 0 0 0 0 0 127 0" result="hardAlpha"/>
<feOffset dy="-0.572041"/>
<feGaussianBlur stdDeviation="0.28602"/>
<feColorMatrix type="matrix" values="0 0 0 0 0 0 0 0 0 0 0 0 0 0 0 0 0 0 0.26 0"/>
<feBlend mode="normal" in2="effect1_dropShadow_1963_100" result="effect2_dropShadow_1963_100"/>
<feColorMatrix in="SourceAlpha" type="matrix" values="0 0 0 0 0 0 0 0 0 0 0 0 0 0 0 0 0 0 127 0" result="hardAlpha"/>
<feOffset dy="-1.71612"/>
<feGaussianBlur stdDeviation="0.572041"/>
<feColorMatrix type="matrix" values="0 0 0 0 0 0 0 0 0 0 0 0 0 0 0 0 0 0 0.15 0"/>
<feBlend mode="normal" in2="effect2_dropShadow_1963_100" result="effect3_dropShadow_1963_100"/>
<feColorMatrix in="SourceAlpha" type="matrix" values="0 0 0 0 0 0 0 0 0 0 0 0 0 0 0 0 0 0 127 0" result="hardAlpha"/>
<feOffset dy="-3.43224"/>
<feGaussianBlur stdDeviation="0.572041"/>
<feColorMatrix type="matrix" values="0 0 0 0 0 0 0 0 0 0 0 0 0 0 0 0 0 0 0.04 0"/>
<feBlend mode="normal" in2="effect3_dropShadow_1963_100" result="effect4_dropShadow_1963_100"/>
<feColorMatrix in="SourceAlpha" type="matrix" values="0 0 0 0 0 0 0 0 0 0 0 0 0 0 0 0 0 0 127 0" result="hardAlpha"/>
<feOffset dy="-5.14837"/>
<feGaussianBlur stdDeviation="0.858061"/>
<feColorMatrix type="matrix" values="0 0 0 0 0 0 0 0 0 0 0 0 0 0 0 0 0 0 0.01 0"/>
<feBlend mode="normal" in2="effect4_dropShadow_1963_100" result="effect5_dropShadow_1963_100"/>
<feBlend mode="normal" in="SourceGraphic" in2="effect5_dropShadow_1963_100" result="shape"/>
</filter>
<filter id="filter1_ddddd_1963_100" x="20.1135" y="5.92956" width="13.0843" height="12.0141" filterUnits="userSpaceOnUse" color-interpolation-filters="sRGB">
<feFlood flood-opacity="0" result="BackgroundImageFix"/>
<feColorMatrix in="SourceAlpha" type="matrix" values="0 0 0 0 0 0 0 0 0 0 0 0 0 0 0 0 0 0 127 0" result="hardAlpha"/>
<feOffset/>
<feGaussianBlur stdDeviation="0.28602"/>
<feColorMatrix type="matrix" values="0 0 0 0 0 0 0 0 0 0 0 0 0 0 0 0 0 0 0.29 0"/>
<feBlend mode="normal" in2="BackgroundImageFix" result="effect1_dropShadow_1963_100"/>
<feColorMatrix in="SourceAlpha" type="matrix" values="0 0 0 0 0 0 0 0 0 0 0 0 0 0 0 0 0 0 127 0" result="hardAlpha"/>
<feOffset dx="1.14408" dy="0.572041"/>
<feGaussianBlur stdDeviation="0.572041"/>
<feColorMatrix type="matrix" values="0 0 0 0 0 0 0 0 0 0 0 0 0 0 0 0 0 0 0.26 0"/>
<feBlend mode="normal" in2="effect1_dropShadow_1963_100" result="effect2_dropShadow_1963_100"/>
<feColorMatrix in="SourceAlpha" type="matrix" values="0 0 0 0 0 0 0 0 0 0 0 0 0 0 0 0 0 0 127 0" result="hardAlpha"/>
<feOffset dx="2.28816" dy="1.14408"/>
<feGaussianBlur stdDeviation="0.858061"/>
<feColorMatrix type="matrix" values="0 0 0 0 0 0 0 0 0 0 0 0 0 0 0 0 0 0 0.15 0"/>
<feBlend mode="normal" in2="effect2_dropShadow_1963_100" result="effect3_dropShadow_1963_100"/>
<feColorMatrix in="SourceAlpha" type="matrix" values="0 0 0 0 0 0 0 0 0 0 0 0 0 0 0 0 0 0 127 0" result="hardAlpha"/>
<feOffset dx="4.00428" dy="2.28816"/>
<feGaussianBlur stdDeviation="0.858061"/>
<feColorMatrix type="matrix" values="0 0 0 0 0 0 0 0 0 0 0 0 0 0 0 0 0 0 0.04 0"/>
<feBlend mode="normal" in2="effect3_dropShadow_1963_100" result="effect4_dropShadow_1963_100"/>
<feColorMatrix in="SourceAlpha" type="matrix" values="0 0 0 0 0 0 0 0 0 0 0 0 0 0 0 0 0 0 127 0" result="hardAlpha"/>
<feOffset dx="6.29245" dy="3.43224"/>
<feGaussianBlur stdDeviation="1.14408"/>
<feColorMatrix type="matrix" values="0 0 0 0 0 0 0 0 0 0 0 0 0 0 0 0 0 0 0.01 0"/>
<feBlend mode="normal" in2="effect4_dropShadow_1963_100" result="effect5_dropShadow_1963_100"/>
<feBlend mode="normal" in="SourceGraphic" in2="effect5_dropShadow_1963_100" result="shape"/>
</filter>
<filter id="filter2_ddddd_1963_100" x="0.424049" y="6.09404" width="12.2867" height="10.541" filterUnits="userSpaceOnUse" color-interpolation-filters="sRGB">
<feFlood flood-opacity="0" result="BackgroundImageFix"/>
<feColorMatrix in="SourceAlpha" type="matrix" values="0 0 0 0 0 0 0 0 0 0 0 0 0 0 0 0 0 0 127 0" result="hardAlpha"/>
<feOffset/>
<feGaussianBlur stdDeviation="0.28602"/>
<feColorMatrix type="matrix" values="0 0 0 0 0 0 0 0 0 0 0 0 0 0 0 0 0 0 0.29 0"/>
<feBlend mode="normal" in2="BackgroundImageFix" result="effect1_dropShadow_1963_100"/>
<feColorMatrix in="SourceAlpha" type="matrix" values="0 0 0 0 0 0 0 0 0 0 0 0 0 0 0 0 0 0 127 0" result="hardAlpha"/>
<feOffset dx="-1.14408" dy="0.572041"/>
<feGaussianBlur stdDeviation="0.572041"/>
<feColorMatrix type="matrix" values="0 0 0 0 0 0 0 0 0 0 0 0 0 0 0 0 0 0 0.26 0"/>
<feBlend mode="normal" in2="effect1_dropShadow_1963_100" result="effect2_dropShadow_1963_100"/>
<feColorMatrix in="SourceAlpha" type="matrix" values="0 0 0 0 0 0 0 0 0 0 0 0 0 0 0 0 0 0 127 0" result="hardAlpha"/>
<feOffset dx="-2.28816" dy="1.14408"/>
<feGaussianBlur stdDeviation="0.858061"/>
<feColorMatrix type="matrix" values="0 0 0 0 0 0 0 0 0 0 0 0 0 0 0 0 0 0 0.15 0"/>
<feBlend mode="normal" in2="effect2_dropShadow_1963_100" result="effect3_dropShadow_1963_100"/>
<feColorMatrix in="SourceAlpha" type="matrix" values="0 0 0 0 0 0 0 0 0 0 0 0 0 0 0 0 0 0 127 0" result="hardAlpha"/>
<feOffset dx="-4.00428" dy="1.71612"/>
<feGaussianBlur stdDeviation="0.858061"/>
<feColorMatrix type="matrix" values="0 0 0 0 0 0 0 0 0 0 0 0 0 0 0 0 0 0 0.04 0"/>
<feBlend mode="normal" in2="effect3_dropShadow_1963_100" result="effect4_dropShadow_1963_100"/>
<feColorMatrix in="SourceAlpha" type="matrix" values="0 0 0 0 0 0 0 0 0 0 0 0 0 0 0 0 0 0 127 0" result="hardAlpha"/>
<feOffset dx="-6.29245" dy="2.8602"/>
<feGaussianBlur stdDeviation="0.858061"/>
<feColorMatrix type="matrix" values="0 0 0 0 0 0 0 0 0 0 0 0 0 0 0 0 0 0 0.01 0"/>
<feBlend mode="normal" in2="effect4_dropShadow_1963_100" result="effect5_dropShadow_1963_100"/>
<feBlend mode="normal" in="SourceGraphic" in2="effect5_dropShadow_1963_100" result="shape"/>
</filter>
<filter id="filter3_ddddd_1963_100" x="10.983" y="0.914326" width="10.9041" height="12.2904" filterUnits="userSpaceOnUse" color-interpolation-filters="sRGB">
<feFlood flood-opacity="0" result="BackgroundImageFix"/>
<feColorMatrix in="SourceAlpha" type="matrix" values="0 0 0 0 0 0 0 0 0 0 0 0 0 0 0 0 0 0 127 0" result="hardAlpha"/>
<feOffset/>
<feGaussianBlur stdDeviation="0.572041"/>
<feColorMatrix type="matrix" values="0 0 0 0 0 0 0 0 0 0 0 0 0 0 0 0 0 0 0.58 0"/>
<feBlend mode="normal" in2="BackgroundImageFix" result="effect1_dropShadow_1963_100"/>
<feColorMatrix in="SourceAlpha" type="matrix" values="0 0 0 0 0 0 0 0 0 0 0 0 0 0 0 0 0 0 127 0" result="hardAlpha"/>
<feOffset/>
<feGaussianBlur stdDeviation="1.14408"/>
<feColorMatrix type="matrix" values="0 0 0 0 0 0 0 0 0 0 0 0 0 0 0 0 0 0 0.5 0"/>
<feBlend mode="normal" in2="effect1_dropShadow_1963_100" result="effect2_dropShadow_1963_100"/>
<feColorMatrix in="SourceAlpha" type="matrix" values="0 0 0 0 0 0 0 0 0 0 0 0 0 0 0 0 0 0 127 0" result="hardAlpha"/>
<feOffset/>
<feGaussianBlur stdDeviation="1.71612"/>
<feColorMatrix type="matrix" values="0 0 0 0 0 0 0 0 0 0 0 0 0 0 0 0 0 0 0.3 0"/>
<feBlend mode="normal" in2="effect2_dropShadow_1963_100" result="effect3_dropShadow_1963_100"/>
<feColorMatrix in="SourceAlpha" type="matrix" values="0 0 0 0 0 0 0 0 0 0 0 0 0 0 0 0 0 0 127 0" result="hardAlpha"/>
<feOffset/>
<feGaussianBlur stdDeviation="2.00214"/>
<feColorMatrix type="matrix" values="0 0 0 0 0 0 0 0 0 0 0 0 0 0 0 0 0 0 0.09 0"/>
<feBlend mode="normal" in2="effect3_dropShadow_1963_100" result="effect4_dropShadow_1963_100"/>
<feColorMatrix in="SourceAlpha" type="matrix" values="0 0 0 0 0 0 0 0 0 0 0 0 0 0 0 0 0 0 127 0" result="hardAlpha"/>
<feOffset/>
<feGaussianBlur stdDeviation="2.00214"/>
<feColorMatrix type="matrix" values="0 0 0 0 0 0 0 0 0 0 0 0 0 0 0 0 0 0 0.01 0"/>
<feBlend mode="normal" in2="effect4_dropShadow_1963_100" result="effect5_dropShadow_1963_100"/>
<feBlend mode="normal" in="SourceGraphic" in2="effect5_dropShadow_1963_100" result="shape"/>
</filter>
<linearGradient id="paint0_linear_1963_100" x1="16.4362" y1="4.78351" x2="16.4362" y2="37.7768" gradientUnits="userSpaceOnUse">
<stop stop-color="#3433F3"/>
<stop offset="1" stop-color="#1E1E8D"/>
</linearGradient>
<linearGradient id="paint1_linear_1963_100" x1="16.4376" y1="1.22322" x2="16.4376" y2="32.6081" gradientUnits="userSpaceOnUse">
<stop offset="0.352288" stop-color="#74D6EF"/>
<stop offset="0.709394" stop-color="#01B7E6"/>
</linearGradient>
<linearGradient id="paint2_linear_1963_100" x1="16.4363" y1="1.22322" x2="16.4363" y2="29.5906" gradientUnits="userSpaceOnUse">
<stop offset="0.185158" stop-color="#74D6EF"/>
<stop offset="0.577796" stop-color="#46CAEB"/>
<stop offset="1" stop-color="#01B7E6"/>
</linearGradient>
</defs>
</svg>
