<svg width="130" height="132" viewBox="0 0 130 132" fill="none" xmlns="http://www.w3.org/2000/svg">
<path d="M128.734 106.374C128.604 106.519 128.211 106.762 128.022 106.859L116.28 111.469L125.014 122.492C125.648 123.514 125.483 124.846 124.678 125.738C123.052 127.539 120.177 129.195 118.386 130.937C116.083 131.917 115.016 130.08 113.755 128.573C111.315 125.662 109.148 122.515 106.618 119.678L99.4812 130.719C98.6861 131.779 97.2118 131.995 96.2156 131.089C95.5791 130.511 95.1105 128.587 94.81 127.695C89.72 112.475 85.3706 96.9823 80.425 81.7147C80.496 80.2546 81.4875 79.2158 82.9948 79.4075L128.232 102.983C129.37 103.681 129.652 105.378 128.732 106.374H128.734Z" fill="black"/>
<path d="M128.734 106.374C128.604 106.519 128.211 106.762 128.022 106.859L116.28 111.469L125.014 122.492C125.648 123.514 125.483 124.846 124.678 125.738C123.052 127.539 120.177 129.195 118.386 130.937C116.083 131.917 115.016 130.08 113.755 128.573C111.315 125.662 109.148 122.515 106.618 119.678L99.4812 130.719C98.6861 131.779 97.2118 131.995 96.2156 131.089C95.5791 130.511 95.1105 128.587 94.81 127.695C89.72 112.475 85.3706 96.9823 80.425 81.7147C80.496 80.2546 81.4875 79.2158 82.9948 79.4075L128.232 102.983C129.37 103.681 129.652 105.378 128.732 106.374H128.734Z" fill="url(#paint0_linear_1805_335)"/>
<path d="M116.805 91.4404L116.774 24.3639C116.644 19.3023 110.643 12.8563 105.563 12.8563H90.2997V3.036C89.8572 0.830563 88.1795 0.253174 86.9466 0.253174C84.7814 0.253174 83.6456 2.01137 83.674 3.036V12.8563H33.9854V3.036C34.0138 2.01137 32.878 0.253174 30.7128 0.253174C29.4799 0.253174 27.8022 0.830563 27.3596 3.036V12.8563H12.0967C7.01616 12.8563 1.0151 19.3023 0.884954 24.3639L0.844727 107.167C1.3109 113.812 6.42221 118.885 13.0314 119.354H87.1572C86.542 117.416 85.9196 115.421 85.2973 113.419C85.2239 113.185 85.1529 112.953 85.0796 112.719L13.2822 112.716C11.1218 112.929 7.48233 109.604 7.48233 107.629V43.3822H110.177V87.9855L116.805 91.4404Z" fill="black"/>
<path d="M116.805 91.4404L116.774 24.3639C116.644 19.3023 110.643 12.8563 105.563 12.8563H90.2997V3.036C89.8572 0.830563 88.1795 0.253174 86.9466 0.253174C84.7814 0.253174 83.6456 2.01137 83.674 3.036V12.8563H33.9854V3.036C34.0138 2.01137 32.878 0.253174 30.7128 0.253174C29.4799 0.253174 27.8022 0.830563 27.3596 3.036V12.8563H12.0967C7.01616 12.8563 1.0151 19.3023 0.884954 24.3639L0.844727 107.167C1.3109 113.812 6.42221 118.885 13.0314 119.354H87.1572C86.542 117.416 85.9196 115.421 85.2973 113.419C85.2239 113.185 85.1529 112.953 85.0796 112.719L13.2822 112.716C11.1218 112.929 7.48233 109.604 7.48233 107.629V43.3822H110.177V87.9855L116.805 91.4404Z" fill="url(#paint1_linear_1805_335)"/>
<path d="M67.5828 54.9773H50.0766V72.4883H67.5828V54.9773Z" fill="black"/>
<path d="M67.5828 54.9773H50.0766V72.4883H67.5828V54.9773Z" fill="url(#paint2_linear_1805_335)"/>
<path d="M67.5828 81.9537V99.1097L67.2279 99.4646H50.4315L50.0766 99.1097V81.9537H67.5828Z" fill="black"/>
<path d="M67.5828 81.9537V99.1097L67.2279 99.4646H50.4315L50.0766 99.1097V81.9537H67.5828Z" fill="url(#paint3_linear_1805_335)"/>
<path d="M41.0845 54.9773H23.5735V72.4883H41.0845V54.9773Z" fill="black"/>
<path d="M41.0845 54.9773H23.5735V72.4883H41.0845V54.9773Z" fill="url(#paint4_linear_1805_335)"/>
<path d="M41.0845 81.9537H23.5735V99.4646H41.0845V81.9537Z" fill="black"/>
<path d="M41.0845 81.9537H23.5735V99.4646H41.0845V81.9537Z" fill="url(#paint5_linear_1805_335)"/>
<path d="M94.0859 54.9773H76.5749V72.4883H94.0859V54.9773Z" fill="black"/>
<path d="M94.0859 54.9773H76.5749V72.4883H94.0859V54.9773Z" fill="url(#paint6_linear_1805_335)"/>
<defs>
<linearGradient id="paint0_linear_1805_335" x1="104.128" y1="-4.77537" x2="104.128" y2="95.8891" gradientUnits="userSpaceOnUse">
<stop offset="0.352288" stop-color="#74D6EF"/>
<stop offset="0.709394" stop-color="#01B7E6"/>
</linearGradient>
<linearGradient id="paint1_linear_1805_335" x1="104.128" y1="-4.77537" x2="104.128" y2="95.8891" gradientUnits="userSpaceOnUse">
<stop offset="0.352288" stop-color="#74D6EF"/>
<stop offset="0.709394" stop-color="#01B7E6"/>
</linearGradient>
<linearGradient id="paint2_linear_1805_335" x1="104.128" y1="-4.77537" x2="104.128" y2="95.8891" gradientUnits="userSpaceOnUse">
<stop offset="0.352288" stop-color="#74D6EF"/>
<stop offset="0.709394" stop-color="#01B7E6"/>
</linearGradient>
<linearGradient id="paint3_linear_1805_335" x1="104.128" y1="-4.77537" x2="104.128" y2="95.8891" gradientUnits="userSpaceOnUse">
<stop offset="0.352288" stop-color="#74D6EF"/>
<stop offset="0.709394" stop-color="#01B7E6"/>
</linearGradient>
<linearGradient id="paint4_linear_1805_335" x1="104.128" y1="-4.77537" x2="104.128" y2="95.8891" gradientUnits="userSpaceOnUse">
<stop offset="0.352288" stop-color="#74D6EF"/>
<stop offset="0.709394" stop-color="#01B7E6"/>
</linearGradient>
<linearGradient id="paint5_linear_1805_335" x1="104.128" y1="-4.77537" x2="104.128" y2="95.8891" gradientUnits="userSpaceOnUse">
<stop offset="0.352288" stop-color="#74D6EF"/>
<stop offset="0.709394" stop-color="#01B7E6"/>
</linearGradient>
<linearGradient id="paint6_linear_1805_335" x1="104.128" y1="-4.77537" x2="104.128" y2="95.8891" gradientUnits="userSpaceOnUse">
<stop offset="0.352288" stop-color="#74D6EF"/>
<stop offset="0.709394" stop-color="#01B7E6"/>
</linearGradient>
</defs>
</svg>
