<svg width="224" height="224" viewBox="0 0 224 224" fill="none" xmlns="http://www.w3.org/2000/svg">
<g filter="url(#filter0_b_1805_190)">
<path d="M139.128 197.358L126.383 193.616C122.229 192.398 117.767 192.768 113.866 194.659L101.917 200.46C97.2941 202.706 91.7351 201.565 88.3659 197.677L79.6736 187.64C76.8369 184.361 72.8768 182.263 68.5755 181.751L55.3901 180.173C50.2867 179.564 46.2228 175.595 45.4934 170.501L43.6101 157.355C42.9928 153.064 40.7976 149.158 37.4599 146.399L27.2168 137.942C23.2521 134.668 21.9791 129.136 24.1149 124.463L29.6339 112.382C31.4346 108.44 31.7006 103.968 30.3861 99.8383L26.346 87.186C24.7788 82.2856 26.7041 76.9436 31.0315 74.1653L42.2075 66.9885C45.8543 64.6471 48.4941 61.0271 49.6159 56.8403L53.0545 44.0073C54.385 39.0416 58.8851 35.593 64.0346 35.5884L77.315 35.5917C81.6494 35.5913 85.8252 33.976 89.0333 31.0648L98.8565 22.1341C102.664 18.6739 108.314 18.2049 112.649 20.9805L123.823 28.1698C127.466 30.5165 131.858 31.4152 136.135 30.6965L149.227 28.4928C154.298 27.6392 159.312 30.2975 161.445 34.9807L166.96 47.0613C168.757 51.0005 171.96 54.1336 175.943 55.834L188.149 61.0665C192.881 63.086 195.659 68.0393 194.921 73.1291L193.026 86.2782C192.406 90.5647 193.413 94.9324 195.84 98.5186L203.286 109.523C206.166 113.781 205.83 119.451 202.458 123.334L193.759 133.366C190.92 136.64 189.402 140.853 189.506 145.188L189.824 158.464C189.942 163.609 186.599 168.188 181.662 169.634L168.923 173.373C164.764 174.589 161.209 177.317 158.957 181.02L152.044 192.359C149.363 196.754 144.079 198.795 139.138 197.346L139.128 197.358Z" fill="#EAF4FE" fill-opacity="0.1"/>
<path d="M127.086 191.217L127.087 191.217L138.311 194.512L138.32 194.501L139.841 194.947C143.698 196.078 147.818 194.486 149.909 191.057L156.821 179.721L127.086 191.217ZM127.086 191.217C122.336 189.825 117.236 190.248 112.776 192.409L112.774 192.41M127.086 191.217L112.774 192.41M112.774 192.41L100.826 198.211L100.825 198.211M112.774 192.41L100.825 198.211M100.825 198.211C97.2205 199.963 92.8842 199.073 90.2551 196.04L81.5642 186.004C78.319 182.253 73.7897 179.854 68.8713 179.268L55.6872 177.691L55.6864 177.69M100.825 198.211L55.6864 177.69M55.6864 177.69C51.7078 177.216 48.5371 174.12 47.9682 170.147L47.9682 170.147M55.6864 177.69L47.9682 170.147M47.9682 170.147L46.0849 157.001L46.0847 156.999M47.9682 170.147L46.0847 156.999M46.0847 156.999C45.3788 152.093 42.8689 147.626 39.0527 144.472L39.0515 144.471M46.0847 156.999L39.0515 144.471M39.0515 144.471L28.8089 136.015C28.8087 136.015 28.8086 136.015 28.8084 136.014C25.7155 133.459 24.7239 129.145 26.3887 125.502L26.3888 125.502M39.0515 144.471L26.3888 125.502M26.3888 125.502L31.9078 113.421L31.9079 113.421M26.3888 125.502L31.9079 113.421M31.9079 113.421C33.9672 108.913 34.2707 103.8 32.7683 99.0801L32.7676 99.0778M31.9079 113.421L32.7676 99.0778M32.7676 99.0778L28.7275 86.4255L28.7272 86.4244M32.7676 99.0778L28.7272 86.4244M28.7272 86.4244C27.5052 82.6036 29.0063 78.4364 32.3821 76.2691L32.3823 76.2689M28.7272 86.4244L32.3823 76.2689M32.3823 76.2689L43.5582 69.0923C43.5583 69.0922 43.5583 69.0922 43.5584 69.0922C47.7302 66.4136 50.7483 62.2735 52.0307 57.4873L55.4693 44.6544C56.5062 40.7846 60.0139 38.0923 64.0363 38.0884C64.0365 38.0884 64.0367 38.0884 64.0369 38.0884L77.3144 38.0917L77.3152 38.0917M32.3823 76.2689L77.3152 38.0917M77.3152 38.0917C82.2717 38.0912 87.046 36.2441 90.7133 32.9162L90.715 32.9146M77.3152 38.0917L90.715 32.9146M90.715 32.9146L100.538 23.9842C103.506 21.2867 107.913 20.9179 111.299 23.0847C111.299 23.0851 111.3 23.0855 111.301 23.0859L122.469 30.2715C126.637 32.9566 131.661 33.9835 136.549 33.162L136.55 33.1619M90.715 32.9146L136.55 33.1619M136.55 33.1619L149.642 30.9581L149.227 28.4928M136.55 33.1619L149.227 28.4928M149.227 28.4928L149.642 30.9581C153.598 30.2923 157.507 32.3657 159.17 36.0171L159.171 36.019M149.227 28.4928L159.171 36.019M159.171 36.019L164.685 48.0988C164.686 48.0991 164.686 48.0993 164.686 48.0995C166.74 52.6028 170.402 56.1865 174.959 58.1325C174.96 58.1327 174.96 58.133 174.961 58.1332L187.164 63.3643L187.168 63.3659M159.171 36.019L187.168 63.3659M187.168 63.3659C190.856 64.9398 193.022 68.8013 192.447 72.7705L192.447 72.7724M187.168 63.3659L192.447 72.7724M192.447 72.7724L190.551 85.9204C189.842 90.8247 190.995 95.8192 193.77 99.9196C193.77 99.9197 193.77 99.9198 193.77 99.9199L201.215 110.924C203.462 114.245 203.199 118.668 200.571 121.695L200.57 121.696M192.447 72.7724L200.57 121.696M200.57 121.696L191.871 131.728L193.759 133.366M200.57 121.696L193.759 133.366M193.759 133.366L191.871 131.728C188.624 135.472 186.887 140.29 187.007 145.248M193.759 133.366L187.007 145.248M187.007 145.248L187.325 158.521L187.007 145.248ZM168.222 170.974L180.958 167.236L180.959 167.235C184.807 166.108 187.415 162.539 187.325 158.524L168.222 170.974ZM168.222 170.974C163.465 172.365 159.398 175.484 156.823 179.719L168.222 170.974Z" stroke="url(#paint0_angular_1805_190)" stroke-width="5"/>
</g>
<path d="M111 77.0346L107.09 88.188C109.742 87.7736 112.381 87.2976 115.008 86.76L118.012 75.5482C115.683 76.0976 113.348 76.5968 111 77.0346ZM153.502 99.0722C148.176 95.783 143.009 92.1874 138.047 88.3361C137.537 92.0885 136.997 96.2017 136.496 100.063C139.012 101.892 141.582 103.667 144.192 105.365C136.685 120.132 124.653 132.388 110.022 140.261C108.027 141.337 105.977 142.329 103.889 143.244C102.529 141.406 101.249 139.521 100.062 137.583C91.3391 123.442 87.0376 106.81 87.9301 90.2314C91.0418 90.0565 94.1548 89.8043 97.2576 89.4816C98.7633 85.8891 100.346 82.0457 101.786 78.5521C95.5522 79.4131 89.2803 79.9438 83.0028 80.1337L78.5351 80.2653L78.0398 84.7201C75.3869 108.955 82.737 133.755 98.2204 152.743L100.569 155.632L104.048 154.305C126.942 145.6 145.7 127.824 155.515 105.528L157.314 101.422L153.502 99.0722ZM130.807 82.4195C128.995 80.8574 127.219 79.2663 125.474 77.6348L122.477 88.8196C124.484 90.5986 126.531 92.3306 128.621 94.0156L130.807 82.4195Z" fill="#EAF4FE"/>
<path d="M111 77.0346L107.09 88.188C109.742 87.7736 112.381 87.2976 115.008 86.76L118.012 75.5482C115.683 76.0976 113.348 76.5968 111 77.0346ZM153.502 99.0722C148.176 95.783 143.009 92.1874 138.047 88.3361C137.537 92.0885 136.997 96.2017 136.496 100.063C139.012 101.892 141.582 103.667 144.192 105.365C136.685 120.132 124.653 132.388 110.022 140.261C108.027 141.337 105.977 142.329 103.889 143.244C102.529 141.406 101.249 139.521 100.062 137.583C91.3391 123.442 87.0376 106.81 87.9301 90.2314C91.0418 90.0565 94.1548 89.8043 97.2576 89.4816C98.7633 85.8891 100.346 82.0457 101.786 78.5521C95.5522 79.4131 89.2803 79.9438 83.0028 80.1337L78.5351 80.2653L78.0398 84.7201C75.3869 108.955 82.737 133.755 98.2204 152.743L100.569 155.632L104.048 154.305C126.942 145.6 145.7 127.824 155.515 105.528L157.314 101.422L153.502 99.0722ZM130.807 82.4195C128.995 80.8574 127.219 79.2663 125.474 77.6348L122.477 88.8196C124.484 90.5986 126.531 92.3306 128.621 94.0156L130.807 82.4195Z" fill="url(#paint1_linear_1805_190)"/>
<path d="M121.167 124.441C113.979 125.493 112.41 131.348 112.41 131.348L110.022 140.261C108.027 141.336 105.976 142.329 103.889 143.244C102.529 141.405 101.249 139.52 100.061 137.582L102.447 128.678C102.447 128.678 104.016 122.823 98.3176 118.319C92.619 113.814 88.6911 109.144 93.0491 99.323C94.1945 96.7494 95.6851 93.2499 97.2574 89.4813C98.7631 85.8888 100.346 82.0454 101.786 78.5518C104.066 72.9749 105.968 68.2665 106.57 66.779C106.822 66.1288 107.22 65.5469 107.755 65.1082C108.425 64.5605 109.458 64.1097 110.851 64.4831C111.005 64.5244 111.157 64.5746 111.297 64.6315C113.317 65.4154 114.243 67.7876 113.527 69.8457L110.999 77.0343L107.089 88.1877L103.979 97.0435C103.483 98.4623 103.597 100.064 104.423 101.323C104.871 102.006 105.531 102.619 106.49 102.876C107.25 103.08 107.944 103.023 108.552 102.856C110.043 102.431 111.143 101.184 111.546 99.6819L119.191 71.15C119.739 69.1049 121.815 67.799 123.87 68.3108L124.042 68.3569C126.077 68.9411 127.222 71.1101 126.674 73.1552L119.029 101.687C118.627 103.189 118.947 104.817 120.026 105.931C120.468 106.379 121.059 106.78 121.819 106.984C122.77 107.238 123.639 107.035 124.377 106.67C125.722 105.992 126.622 104.662 126.892 103.183L128.621 94.0153L130.807 82.4192L132.231 74.8576C132.631 72.7146 134.619 71.1232 136.77 71.4571C136.929 71.4802 137.076 71.5099 137.23 71.5512C138.632 71.927 139.283 72.8288 139.59 73.6384C139.842 74.288 139.888 74.9887 139.79 75.6801C139.565 77.2785 138.859 82.3365 138.047 88.3358C137.536 92.0882 136.997 96.2014 136.496 100.063C135.98 104.086 135.526 107.844 135.227 110.625C134.091 121.309 128.354 123.389 121.167 124.441Z" fill="#EAF4FE"/>
<g filter="url(#filter1_ddddd_1805_190)">
<path d="M97.5238 148.769L100.047 139.352L103.554 144.474L109.153 141.791L106.629 151.209L100.857 154.542L97.5238 148.769Z" fill="#D9D9D9"/>
</g>
<g filter="url(#filter2_ddddd_1805_190)">
<path d="M136.585 99.6372L137.803 88.3302L130.835 83.3979L129.062 94.6956L136.585 99.6372Z" fill="#D9D9D9"/>
</g>
<g filter="url(#filter3_ddddd_1805_190)">
<path d="M97.9015 88.8494L102.235 79.0461L110.247 78.304L106.371 88.3611L97.9015 88.8494Z" fill="#D9D9D9"/>
</g>
<g filter="url(#filter4_ddddd_1805_190)">
<rect x="118.197" y="75.9445" width="7.18587" height="10.625" transform="rotate(15 118.197 75.9445)" fill="#D9D9D9"/>
</g>
<path d="M97.2575 89.4813C95.6851 93.2499 94.1946 96.7494 93.0491 99.3231L135.227 110.625C135.526 107.844 135.98 104.086 136.496 100.063C136.997 96.2014 137.537 92.0882 138.047 88.3359C138.86 82.3365 139.565 77.2785 139.79 75.6802C139.888 74.9887 139.843 74.288 139.59 73.6384C139.283 72.8288 138.632 71.927 137.23 71.5512C137.076 71.51 136.929 71.4802 136.77 71.4571C134.619 71.1232 132.631 72.7146 132.232 74.8577L130.807 82.4192L128.621 94.0153L126.892 103.183C126.622 104.662 125.722 105.992 124.377 106.67C123.639 107.035 122.77 107.238 121.819 106.984C121.059 106.78 120.468 106.379 120.026 105.931C118.947 104.817 118.627 103.189 119.029 101.687L126.674 73.1553C127.222 71.1101 126.077 68.9411 124.042 68.3569L123.87 68.3109C121.815 67.7991 119.739 69.1049 119.191 71.15L111.546 99.6819C111.143 101.184 110.043 102.431 108.552 102.856C107.944 103.023 107.25 103.08 106.49 102.876C105.531 102.619 104.871 102.006 104.423 101.323C103.597 100.064 103.483 98.4623 103.979 97.0436L107.09 88.1878L110.999 77.0343L113.527 69.8458C114.243 67.7876 113.317 65.4155 111.297 64.6315C111.157 64.5747 111.005 64.5244 110.852 64.4832C109.458 64.1098 108.426 64.5605 107.755 65.1083C107.22 65.547 106.822 66.1288 106.57 66.7791C105.968 68.2665 104.066 72.9749 101.786 78.5519C100.346 82.0454 98.7632 85.8888 97.2575 89.4813Z" fill="#74D6EF"/>
<path d="M97.2575 89.4813C95.6851 93.2499 94.1946 96.7494 93.0491 99.3231L135.227 110.625C135.526 107.844 135.98 104.086 136.496 100.063C136.997 96.2014 137.537 92.0882 138.047 88.3359C138.86 82.3365 139.565 77.2785 139.79 75.6802C139.888 74.9887 139.843 74.288 139.59 73.6384C139.283 72.8288 138.632 71.927 137.23 71.5512C137.076 71.51 136.929 71.4802 136.77 71.4571C134.619 71.1232 132.631 72.7146 132.232 74.8577L130.807 82.4192L128.621 94.0153L126.892 103.183C126.622 104.662 125.722 105.992 124.377 106.67C123.639 107.035 122.77 107.238 121.819 106.984C121.059 106.78 120.468 106.379 120.026 105.931C118.947 104.817 118.627 103.189 119.029 101.687L126.674 73.1553C127.222 71.1101 126.077 68.9411 124.042 68.3569L123.87 68.3109C121.815 67.7991 119.739 69.1049 119.191 71.15L111.546 99.6819C111.143 101.184 110.043 102.431 108.552 102.856C107.944 103.023 107.25 103.08 106.49 102.876C105.531 102.619 104.871 102.006 104.423 101.323C103.597 100.064 103.483 98.4623 103.979 97.0436L107.09 88.1878L110.999 77.0343L113.527 69.8458C114.243 67.7876 113.317 65.4155 111.297 64.6315C111.157 64.5747 111.005 64.5244 110.852 64.4832C109.458 64.1098 108.426 64.5605 107.755 65.1083C107.22 65.547 106.822 66.1288 106.57 66.7791C105.968 68.2665 104.066 72.9749 101.786 78.5519C100.346 82.0454 98.7632 85.8888 97.2575 89.4813Z" fill="#EAF4FE"/>
<path d="M103.889 143.244C105.977 142.329 117.026 136.477 119.022 135.402L115.528 148.439L100.569 155.633L89.608 139.418L94.764 128.902C95.9517 130.84 102.529 141.406 103.889 143.244Z" fill="#01B7E6"/>
<path d="M90.3564 43.2096L100.836 41.0013L101.305 43.2227L97.274 44.0728L99.7108 55.6265L97.299 56.1363L94.8623 44.5826L90.8311 45.4326L90.3617 43.2112L90.3564 43.2096Z" fill="#EAF4FE"/>
<path d="M108.195 47.2325L107.329 47.3051C105.643 47.447 104.66 48.4387 104.814 50.2778L105.199 54.8815L102.858 55.0794L102.067 45.6184L104.272 45.4315L104.522 46.7994C104.844 45.822 105.694 45.118 106.962 45.011C107.286 44.9822 107.616 44.9951 108.011 45.0566L108.192 47.2256L108.195 47.2325Z" fill="#EAF4FE"/>
<path d="M118.418 45.5331L117.849 55.0272L115.676 54.8963L115.579 53.6144C114.95 54.4825 113.683 55.0265 112.413 54.949C110.223 54.8186 109.019 53.2612 109.161 50.9364L109.517 44.9983L111.859 45.1398L111.556 50.2548C111.449 52.0615 112.113 52.8358 113.422 52.9138C114.901 53.0025 115.665 52.1809 115.772 50.3742L116.069 45.3952L118.417 45.5383L118.418 45.5331Z" fill="#EAF4FE"/>
<path d="M120.766 52.7216C120.613 53.5373 121.105 54.1739 122.163 54.4004C123.237 54.6316 123.912 54.3174 124.058 53.6429C124.159 53.1734 123.984 52.7816 123.196 52.4184L121.602 51.6628C120.007 50.93 119.366 49.967 119.682 48.4762C120.07 46.6508 121.851 45.888 123.996 46.3435C126.086 46.7885 127.241 48.2968 126.875 50.1059L124.688 49.6377C124.835 48.843 124.418 48.2234 123.534 48.0319C122.631 47.8408 122.012 48.1429 121.865 48.8401C121.752 49.3692 122.095 49.7943 122.844 50.1517L124.438 50.9072C125.926 51.5962 126.562 52.4828 126.258 53.914C125.857 55.799 124.005 56.6266 121.704 56.1356C119.388 55.6399 118.183 54.0877 118.573 52.257L120.76 52.7253L120.766 52.7216Z" fill="#EAF4FE"/>
<path d="M126.998 57.2399L129.393 50.0822L127.659 49.5031L128.283 47.6394L130.017 48.2184L130.956 45.4036L133.185 46.1491L132.246 48.9639L134.001 49.5494L133.377 51.4131L131.622 50.8277L129.227 57.9854L126.998 57.2399Z" fill="#EAF4FE"/>
<path d="M129.364 60.4344L130.63 61.0394C131.463 61.4396 132.078 61.4981 132.926 60.6671L133.474 60.1425L134.307 49.5439L136.546 50.6199L135.756 57.927L141.083 52.7893L143.272 53.8389L134.04 62.3124C132.629 63.6005 131.41 63.8314 130.005 63.1556C129.412 62.8737 128.927 62.5555 128.514 62.2073L129.364 60.4344Z" fill="#EAF4FE"/>
<path d="M147.56 51.1236L152.11 54.3946C154.363 56.0151 154.897 58.1754 153.524 60.0839C152.614 61.3502 151.4 61.8526 149.991 61.532C150.912 62.7861 150.874 64.1365 149.917 65.4634C148.513 67.4198 146.331 67.5851 143.969 65.886L139.339 62.5564L147.56 51.1236ZM144.84 59.1318L142.616 62.2265L145.168 64.0575C146.292 64.867 147.317 64.7671 148.057 63.7373C148.751 62.7681 148.509 61.7585 147.398 60.9644L144.846 59.1334L144.84 59.1318ZM148.29 54.3314L146.054 57.4456L148.479 59.1864C149.574 59.9758 150.601 59.8306 151.331 58.815C152.042 57.8279 151.797 56.8463 150.672 56.0421L148.295 54.333L148.29 54.3314Z" fill="#EAF4FE"/>
<path d="M154.484 62.223L156.195 63.8298L149.684 70.766L147.972 69.1592L154.484 62.223ZM156.569 59.6094C157.11 59.0311 157.993 59.0207 158.585 59.5725C159.146 60.0974 159.189 60.984 158.647 61.5623C158.107 62.1353 157.206 62.1688 156.648 61.6387C156.055 61.0869 156.027 60.1877 156.569 59.6094Z" fill="#EAF4FE"/>
<path d="M151.207 72.3105L156.797 67.2346L155.566 65.8817L157.021 64.561L158.252 65.9139L160.449 63.9202L162.029 65.6598L159.832 67.6534L161.075 69.0217L159.62 70.3424L158.377 68.9742L152.787 74.05L151.207 72.3105Z" fill="#EAF4FE"/>
<path d="M157.707 72.2494C160.153 70.5374 162.958 70.956 164.556 73.2469C166.186 75.5821 165.664 78.1601 163.228 79.8579L162.644 80.2685L158.53 74.4047C157.257 75.5042 157.07 76.7179 157.961 77.9973C158.7 79.0531 159.593 79.4654 160.493 79.1673L161.738 80.9498C159.802 81.8095 157.784 81.1047 156.363 79.068C154.74 76.7466 155.296 73.943 157.711 72.2563L157.707 72.2494ZM159.794 73.5841L162.53 77.4987C163.606 76.748 163.794 75.5116 162.992 74.3567C162.196 73.2207 161.099 72.9537 159.796 73.5788L159.794 73.5841Z" fill="#EAF4FE"/>
<path d="M67.128 146.865C70.7501 144.42 74.7054 145.077 77.008 148.491C78.8731 151.252 78.6491 154.4 76.408 156.491L74.9538 154.335C76.0415 153.019 76.0531 151.319 75.0097 149.768C73.5554 147.612 71.0741 147.312 68.5834 148.991C66.1095 150.658 65.4385 153.107 66.8799 155.251C67.9468 156.83 69.594 157.487 71.1441 156.997L72.5772 159.119C69.8196 160.329 66.7467 159.289 64.8816 156.528C62.5845 153.129 63.465 149.333 67.1207 146.868L67.128 146.865Z" fill="#EAF4FE"/>
<path d="M73.7127 159.964C75.7142 157.748 78.5395 157.52 80.6093 159.39C82.7278 161.3 82.7912 163.926 80.8064 166.131L80.3296 166.66L74.9986 161.876C74.0064 163.235 74.0922 164.46 75.2537 165.503C76.2128 166.365 77.1796 166.561 77.9833 166.07L79.599 167.527C77.9035 168.801 75.7774 168.569 73.9357 166.903C71.8352 165.007 71.7442 162.146 73.7149 159.959L73.7127 159.964ZM76.0451 160.8L79.5946 163.999C80.4734 163.03 80.3815 161.777 79.3376 160.836C78.3066 159.905 77.178 159.896 76.0502 160.802L76.0451 160.8Z" fill="#EAF4FE"/>
<path d="M88.573 168.091L87.8407 167.626C86.4068 166.721 85.0264 166.924 84.0406 168.485L81.5765 172.399L79.5878 171.143L84.6498 163.11L86.5269 164.292L85.8991 165.536C86.7432 164.955 87.8467 164.899 88.9234 165.578C89.202 165.751 89.4575 165.961 89.7336 166.247L88.573 168.091Z" fill="#EAF4FE"/>
<path d="M87.4896 175.689L90.602 168.81L88.9382 168.055L89.749 166.266L91.4178 167.023L92.6418 164.321L94.7829 165.289L93.5589 167.991L95.2428 168.754L94.432 170.544L92.7482 169.78L89.6357 176.659L87.4946 175.691L87.4896 175.689Z" fill="#EAF4FE"/>
<path d="M96.5208 165.595C96.7712 164.845 97.5724 164.467 98.3375 164.724C99.0651 164.971 99.4739 165.756 99.2236 166.506C98.9732 167.256 98.1629 167.653 97.4353 167.407C96.6703 167.15 96.2704 166.345 96.5208 165.595ZM95.7122 168.837L97.9375 169.59L94.8943 178.608L92.669 177.856L95.7122 168.837Z" fill="#EAF4FE"/>
<path d="M105.427 173.264L101.594 172.59L100.282 180.025L97.9858 179.62L99.2978 172.185L97.9522 171.946L98.2911 170.013L99.6367 170.252L99.838 169.112C100.286 166.57 101.801 165.74 103.7 166.076C104.063 166.141 104.491 166.235 104.876 166.384L104.527 168.355L103.71 168.213C102.665 168.03 102.296 168.588 102.132 169.521L101.931 170.661L108.075 171.746L106.424 181.115L104.11 180.709L105.422 173.274L105.427 173.264ZM106.124 167.989C106.258 167.229 106.97 166.728 107.75 166.871C108.51 167.005 109.012 167.717 108.877 168.477C108.742 169.254 108.024 169.753 107.265 169.619C106.488 169.483 105.988 168.766 106.124 167.989Z" fill="#EAF4FE"/>
<path d="M109.025 176.57C108.924 173.584 110.799 171.462 113.591 171.364C116.441 171.268 118.313 173.11 118.413 176.072L118.439 176.782L111.283 177.047C111.514 178.717 112.427 179.534 113.988 179.478C115.28 179.433 116.106 178.905 116.345 177.993L118.516 177.919C118.185 180.013 116.493 181.319 114.014 181.405C111.185 181.505 109.13 179.509 109.033 176.567L109.025 176.57ZM111.286 175.554L116.06 175.389C116.018 174.08 115.082 173.247 113.675 173.294C112.293 173.34 111.468 174.122 111.286 175.554Z" fill="#EAF4FE"/>
<path d="M119.711 176.175C118.969 173.301 120.119 170.819 122.898 170.101C124.184 169.771 125.461 170.016 126.276 170.783L124.771 164.947L127.026 164.363L130.603 178.234L128.513 178.772L127.991 177.376C127.706 178.581 126.673 179.505 125.27 179.867C122.6 180.556 120.439 179.025 119.706 176.173L119.711 176.175ZM127.132 174.184C126.704 172.523 125.379 171.63 123.796 172.045C122.21 172.452 121.544 173.878 121.968 175.519C122.392 177.161 123.659 178.064 125.244 177.656C126.83 177.249 127.559 175.845 127.132 174.184Z" fill="#EAF4FE"/>
<defs>
<filter id="filter0_b_1805_190" x="-5.0966" y="-9.00523" width="238.518" height="238.791" filterUnits="userSpaceOnUse" color-interpolation-filters="sRGB">
<feFlood flood-opacity="0" result="BackgroundImageFix"/>
<feGaussianBlur in="BackgroundImageFix" stdDeviation="14.0923"/>
<feComposite in2="SourceAlpha" operator="in" result="effect1_backgroundBlur_1805_190"/>
<feBlend mode="normal" in="SourceGraphic" in2="effect1_backgroundBlur_1805_190" result="shape"/>
</filter>
<filter id="filter1_ddddd_1805_190" x="95.3514" y="130.662" width="15.9738" height="24.6041" filterUnits="userSpaceOnUse" color-interpolation-filters="sRGB">
<feFlood flood-opacity="0" result="BackgroundImageFix"/>
<feColorMatrix in="SourceAlpha" type="matrix" values="0 0 0 0 0 0 0 0 0 0 0 0 0 0 0 0 0 0 127 0" result="hardAlpha"/>
<feOffset/>
<feGaussianBlur stdDeviation="0.362074"/>
<feColorMatrix type="matrix" values="0 0 0 0 0 0 0 0 0 0 0 0 0 0 0 0 0 0 0.3 0"/>
<feBlend mode="normal" in2="BackgroundImageFix" result="effect1_dropShadow_1805_190"/>
<feColorMatrix in="SourceAlpha" type="matrix" values="0 0 0 0 0 0 0 0 0 0 0 0 0 0 0 0 0 0 127 0" result="hardAlpha"/>
<feOffset dy="-0.724148"/>
<feGaussianBlur stdDeviation="0.362074"/>
<feColorMatrix type="matrix" values="0 0 0 0 0 0 0 0 0 0 0 0 0 0 0 0 0 0 0.26 0"/>
<feBlend mode="normal" in2="effect1_dropShadow_1805_190" result="effect2_dropShadow_1805_190"/>
<feColorMatrix in="SourceAlpha" type="matrix" values="0 0 0 0 0 0 0 0 0 0 0 0 0 0 0 0 0 0 127 0" result="hardAlpha"/>
<feOffset dy="-2.17244"/>
<feGaussianBlur stdDeviation="0.724148"/>
<feColorMatrix type="matrix" values="0 0 0 0 0 0 0 0 0 0 0 0 0 0 0 0 0 0 0.15 0"/>
<feBlend mode="normal" in2="effect2_dropShadow_1805_190" result="effect3_dropShadow_1805_190"/>
<feColorMatrix in="SourceAlpha" type="matrix" values="0 0 0 0 0 0 0 0 0 0 0 0 0 0 0 0 0 0 127 0" result="hardAlpha"/>
<feOffset dy="-4.34489"/>
<feGaussianBlur stdDeviation="0.724148"/>
<feColorMatrix type="matrix" values="0 0 0 0 0 0 0 0 0 0 0 0 0 0 0 0 0 0 0.04 0"/>
<feBlend mode="normal" in2="effect3_dropShadow_1805_190" result="effect4_dropShadow_1805_190"/>
<feColorMatrix in="SourceAlpha" type="matrix" values="0 0 0 0 0 0 0 0 0 0 0 0 0 0 0 0 0 0 127 0" result="hardAlpha"/>
<feOffset dy="-6.51733"/>
<feGaussianBlur stdDeviation="1.08622"/>
<feColorMatrix type="matrix" values="0 0 0 0 0 0 0 0 0 0 0 0 0 0 0 0 0 0 0.01 0"/>
<feBlend mode="normal" in2="effect4_dropShadow_1805_190" result="effect5_dropShadow_1805_190"/>
<feBlend mode="normal" in="SourceGraphic" in2="effect5_dropShadow_1805_190" result="shape"/>
</filter>
<filter id="filter2_ddddd_1805_190" x="128.338" y="82.6737" width="20.3279" height="24.2049" filterUnits="userSpaceOnUse" color-interpolation-filters="sRGB">
<feFlood flood-opacity="0" result="BackgroundImageFix"/>
<feColorMatrix in="SourceAlpha" type="matrix" values="0 0 0 0 0 0 0 0 0 0 0 0 0 0 0 0 0 0 127 0" result="hardAlpha"/>
<feOffset/>
<feGaussianBlur stdDeviation="0.362074"/>
<feColorMatrix type="matrix" values="0 0 0 0 0 0 0 0 0 0 0 0 0 0 0 0 0 0 0.29 0"/>
<feBlend mode="normal" in2="BackgroundImageFix" result="effect1_dropShadow_1805_190"/>
<feColorMatrix in="SourceAlpha" type="matrix" values="0 0 0 0 0 0 0 0 0 0 0 0 0 0 0 0 0 0 127 0" result="hardAlpha"/>
<feOffset dx="1.4483" dy="0.724148"/>
<feGaussianBlur stdDeviation="0.724148"/>
<feColorMatrix type="matrix" values="0 0 0 0 0 0 0 0 0 0 0 0 0 0 0 0 0 0 0.26 0"/>
<feBlend mode="normal" in2="effect1_dropShadow_1805_190" result="effect2_dropShadow_1805_190"/>
<feColorMatrix in="SourceAlpha" type="matrix" values="0 0 0 0 0 0 0 0 0 0 0 0 0 0 0 0 0 0 127 0" result="hardAlpha"/>
<feOffset dx="2.89659" dy="1.4483"/>
<feGaussianBlur stdDeviation="1.08622"/>
<feColorMatrix type="matrix" values="0 0 0 0 0 0 0 0 0 0 0 0 0 0 0 0 0 0 0.15 0"/>
<feBlend mode="normal" in2="effect2_dropShadow_1805_190" result="effect3_dropShadow_1805_190"/>
<feColorMatrix in="SourceAlpha" type="matrix" values="0 0 0 0 0 0 0 0 0 0 0 0 0 0 0 0 0 0 127 0" result="hardAlpha"/>
<feOffset dx="5.06903" dy="2.89659"/>
<feGaussianBlur stdDeviation="1.08622"/>
<feColorMatrix type="matrix" values="0 0 0 0 0 0 0 0 0 0 0 0 0 0 0 0 0 0 0.04 0"/>
<feBlend mode="normal" in2="effect3_dropShadow_1805_190" result="effect4_dropShadow_1805_190"/>
<feColorMatrix in="SourceAlpha" type="matrix" values="0 0 0 0 0 0 0 0 0 0 0 0 0 0 0 0 0 0 127 0" result="hardAlpha"/>
<feOffset dx="7.96562" dy="4.34489"/>
<feGaussianBlur stdDeviation="1.4483"/>
<feColorMatrix type="matrix" values="0 0 0 0 0 0 0 0 0 0 0 0 0 0 0 0 0 0 0.01 0"/>
<feBlend mode="normal" in2="effect4_dropShadow_1805_190" result="effect5_dropShadow_1805_190"/>
<feBlend mode="normal" in="SourceGraphic" in2="effect5_dropShadow_1805_190" result="shape"/>
</filter>
<filter id="filter3_ddddd_1805_190" x="87.7634" y="77.5798" width="23.208" height="17.0627" filterUnits="userSpaceOnUse" color-interpolation-filters="sRGB">
<feFlood flood-opacity="0" result="BackgroundImageFix"/>
<feColorMatrix in="SourceAlpha" type="matrix" values="0 0 0 0 0 0 0 0 0 0 0 0 0 0 0 0 0 0 127 0" result="hardAlpha"/>
<feOffset/>
<feGaussianBlur stdDeviation="0.362074"/>
<feColorMatrix type="matrix" values="0 0 0 0 0 0 0 0 0 0 0 0 0 0 0 0 0 0 0.29 0"/>
<feBlend mode="normal" in2="BackgroundImageFix" result="effect1_dropShadow_1805_190"/>
<feColorMatrix in="SourceAlpha" type="matrix" values="0 0 0 0 0 0 0 0 0 0 0 0 0 0 0 0 0 0 127 0" result="hardAlpha"/>
<feOffset dx="-1.4483" dy="0.724148"/>
<feGaussianBlur stdDeviation="0.724148"/>
<feColorMatrix type="matrix" values="0 0 0 0 0 0 0 0 0 0 0 0 0 0 0 0 0 0 0.26 0"/>
<feBlend mode="normal" in2="effect1_dropShadow_1805_190" result="effect2_dropShadow_1805_190"/>
<feColorMatrix in="SourceAlpha" type="matrix" values="0 0 0 0 0 0 0 0 0 0 0 0 0 0 0 0 0 0 127 0" result="hardAlpha"/>
<feOffset dx="-2.89659" dy="1.4483"/>
<feGaussianBlur stdDeviation="1.08622"/>
<feColorMatrix type="matrix" values="0 0 0 0 0 0 0 0 0 0 0 0 0 0 0 0 0 0 0.15 0"/>
<feBlend mode="normal" in2="effect2_dropShadow_1805_190" result="effect3_dropShadow_1805_190"/>
<feColorMatrix in="SourceAlpha" type="matrix" values="0 0 0 0 0 0 0 0 0 0 0 0 0 0 0 0 0 0 127 0" result="hardAlpha"/>
<feOffset dx="-5.06903" dy="2.17244"/>
<feGaussianBlur stdDeviation="1.08622"/>
<feColorMatrix type="matrix" values="0 0 0 0 0 0 0 0 0 0 0 0 0 0 0 0 0 0 0.04 0"/>
<feBlend mode="normal" in2="effect3_dropShadow_1805_190" result="effect4_dropShadow_1805_190"/>
<feColorMatrix in="SourceAlpha" type="matrix" values="0 0 0 0 0 0 0 0 0 0 0 0 0 0 0 0 0 0 127 0" result="hardAlpha"/>
<feOffset dx="-7.96562" dy="3.62074"/>
<feGaussianBlur stdDeviation="1.08622"/>
<feColorMatrix type="matrix" values="0 0 0 0 0 0 0 0 0 0 0 0 0 0 0 0 0 0 0.01 0"/>
<feBlend mode="normal" in2="effect4_dropShadow_1805_190" result="effect5_dropShadow_1805_190"/>
<feBlend mode="normal" in="SourceGraphic" in2="effect5_dropShadow_1805_190" result="shape"/>
</filter>
<filter id="filter4_ddddd_1805_190" x="110.377" y="70.8755" width="19.8291" height="22.2608" filterUnits="userSpaceOnUse" color-interpolation-filters="sRGB">
<feFlood flood-opacity="0" result="BackgroundImageFix"/>
<feColorMatrix in="SourceAlpha" type="matrix" values="0 0 0 0 0 0 0 0 0 0 0 0 0 0 0 0 0 0 127 0" result="hardAlpha"/>
<feOffset/>
<feGaussianBlur stdDeviation="0.724148"/>
<feColorMatrix type="matrix" values="0 0 0 0 0 0 0 0 0 0 0 0 0 0 0 0 0 0 0.58 0"/>
<feBlend mode="normal" in2="BackgroundImageFix" result="effect1_dropShadow_1805_190"/>
<feColorMatrix in="SourceAlpha" type="matrix" values="0 0 0 0 0 0 0 0 0 0 0 0 0 0 0 0 0 0 127 0" result="hardAlpha"/>
<feOffset/>
<feGaussianBlur stdDeviation="1.4483"/>
<feColorMatrix type="matrix" values="0 0 0 0 0 0 0 0 0 0 0 0 0 0 0 0 0 0 0.5 0"/>
<feBlend mode="normal" in2="effect1_dropShadow_1805_190" result="effect2_dropShadow_1805_190"/>
<feColorMatrix in="SourceAlpha" type="matrix" values="0 0 0 0 0 0 0 0 0 0 0 0 0 0 0 0 0 0 127 0" result="hardAlpha"/>
<feOffset/>
<feGaussianBlur stdDeviation="2.17244"/>
<feColorMatrix type="matrix" values="0 0 0 0 0 0 0 0 0 0 0 0 0 0 0 0 0 0 0.3 0"/>
<feBlend mode="normal" in2="effect2_dropShadow_1805_190" result="effect3_dropShadow_1805_190"/>
<feColorMatrix in="SourceAlpha" type="matrix" values="0 0 0 0 0 0 0 0 0 0 0 0 0 0 0 0 0 0 127 0" result="hardAlpha"/>
<feOffset/>
<feGaussianBlur stdDeviation="2.53452"/>
<feColorMatrix type="matrix" values="0 0 0 0 0 0 0 0 0 0 0 0 0 0 0 0 0 0 0.09 0"/>
<feBlend mode="normal" in2="effect3_dropShadow_1805_190" result="effect4_dropShadow_1805_190"/>
<feColorMatrix in="SourceAlpha" type="matrix" values="0 0 0 0 0 0 0 0 0 0 0 0 0 0 0 0 0 0 127 0" result="hardAlpha"/>
<feOffset/>
<feGaussianBlur stdDeviation="2.53452"/>
<feColorMatrix type="matrix" values="0 0 0 0 0 0 0 0 0 0 0 0 0 0 0 0 0 0 0.01 0"/>
<feBlend mode="normal" in2="effect4_dropShadow_1805_190" result="effect5_dropShadow_1805_190"/>
<feBlend mode="normal" in="SourceGraphic" in2="effect5_dropShadow_1805_190" result="shape"/>
</filter>
<radialGradient id="paint0_angular_1805_190" cx="0" cy="0" r="1" gradientUnits="userSpaceOnUse" gradientTransform="translate(112.303 111.824) rotate(-75) scale(91.0768 91.2078)">
<stop stop-color="#EAF4FE"/>
<stop offset="0.34" stop-color="#3AC6EA"/>
<stop offset="0.68" stop-color="#3AC6EA"/>
<stop offset="1" stop-color="#EAF4FE"/>
</radialGradient>
<linearGradient id="paint1_linear_1805_190" x1="121.754" y1="76.5508" x2="100.565" y2="155.631" gradientUnits="userSpaceOnUse">
<stop offset="0.352288" stop-color="#74D6EF"/>
<stop offset="0.709394" stop-color="#01B7E6"/>
</linearGradient>
</defs>
</svg>
