<svg width="20" height="19" viewBox="0 0 20 19" fill="none" xmlns="http://www.w3.org/2000/svg">
<path d="M17.0973 17.3927C16.9279 17.3927 16.767 17.325 16.6484 17.2064L11.245 11.803C10.9994 11.5573 10.9994 11.1508 11.245 10.9052L17.7918 4.35841C17.9527 4.19749 18.1983 4.13821 18.4185 4.19749C18.6387 4.26525 18.8081 4.4431 18.8589 4.66331C19.0199 5.3832 19.1046 6.18778 19.1046 7.11941V12.201C19.1046 14.547 18.6133 16.1308 17.5462 17.2064C17.4276 17.325 17.2498 17.3504 17.0973 17.3927ZM12.5916 11.3541L17.0465 15.809C17.5801 14.9874 17.8342 13.8187 17.8342 12.201V7.11941C17.8342 6.77217 17.8257 6.45034 17.8003 6.14544L12.5916 11.3541Z" fill="#171717"/>
<path d="M5.14711 18.5361C5.09629 18.5361 5.05396 18.5276 5.00315 18.5192C2.19979 17.8755 0.895508 15.8682 0.895508 12.201V7.11941C0.895508 2.52055 2.8604 0.555664 7.45925 0.555664H12.5409C16.2081 0.555664 18.2153 1.85995 18.8589 4.66331C18.9097 4.87504 18.8421 5.10371 18.6896 5.25615L5.59599 18.3498C5.47741 18.4683 5.3165 18.5361 5.14711 18.5361ZM7.45925 1.82607C3.55488 1.82607 2.16591 3.21504 2.16591 7.11941V12.201C2.16591 15.1399 2.97897 16.6135 4.95233 17.1979L17.5293 4.62095C16.9534 2.6476 15.4712 1.83453 12.5324 1.83453H7.45925V1.82607Z" fill="#171717"/>
<path d="M12.5408 18.7648H7.45916C6.52753 18.7648 5.73151 18.6885 5.00315 18.5192C4.77447 18.4683 4.59651 18.2989 4.53722 18.0787C4.46947 17.8585 4.53722 17.6214 4.69814 17.452L11.245 10.9052C11.4906 10.6596 11.8971 10.6596 12.1427 10.9052L17.5462 16.3087C17.6647 16.4272 17.7325 16.5881 17.7325 16.7575C17.7325 16.9269 17.6648 17.0878 17.5462 17.2064C16.4706 18.2735 14.8868 18.7648 12.5408 18.7648ZM6.48519 17.4605C6.79008 17.4859 7.11191 17.4944 7.45916 17.4944H12.5408C14.1669 17.4944 15.3272 17.2403 16.1487 16.7067L11.6938 12.2518L6.48519 17.4605Z" fill="#171717"/>
<path d="M7.56083 10.7697C7.02727 10.7697 6.49369 10.5749 6.07022 10.1768C4.72359 8.89796 4.18158 7.49205 4.50341 6.12002C4.82525 4.71411 6.05329 3.76553 7.56083 3.76553C9.06838 3.76553 10.2964 4.71411 10.6183 6.12002C10.9316 7.50052 10.3896 8.89796 9.04297 10.1768C8.62797 10.5664 8.0944 10.7697 7.56083 10.7697ZM5.73993 6.3995C5.46891 7.55133 6.24808 8.5846 6.95104 9.25367C7.29828 9.58398 7.83185 9.58398 8.17063 9.25367C8.86512 8.59307 9.64429 7.5598 9.38174 6.3995C9.15307 5.39164 8.25532 5.02747 7.56083 5.02747C6.86635 5.02747 5.97707 5.39164 5.73993 6.3995Z" fill="#171717"/>
<path d="M7.58621 7.5344C7.1204 7.5344 6.73927 7.15328 6.73927 6.68746C6.73927 6.22165 7.11193 5.84053 7.58621 5.84053H7.59469C8.0605 5.84053 8.44162 6.22165 8.44162 6.68746C8.44162 7.15328 8.05202 7.5344 7.58621 7.5344Z" fill="#171717"/>
</svg>
