<svg width="45" height="56" viewBox="0 0 45 56" fill="none" xmlns="http://www.w3.org/2000/svg">
<g filter="url(#filter0_f_1976_70)">
<ellipse cx="22.4922" cy="50.0398" rx="18.2344" ry="1.91193" fill="#A9A9A9"/>
</g>
<path d="M40.5797 14.9506C38.3778 5.26207 29.9265 0.900146 22.5029 0.900146C22.5029 0.900146 22.5029 0.900146 22.4819 0.900146C15.0792 0.900146 6.60702 5.2411 4.40508 14.9296C1.9515 25.7505 8.57827 34.9148 14.5759 40.6817C16.7988 42.8207 19.6508 43.8903 22.5029 43.8903C25.3549 43.8903 28.2069 42.8207 30.4089 40.6817C36.4065 34.9148 43.0333 25.7715 40.5797 14.9506ZM22.5029 25.4569C18.854 25.4569 15.8971 22.5001 15.8971 18.8511C15.8971 15.2022 18.854 12.2453 22.5029 12.2453C26.1518 12.2453 29.1087 15.2022 29.1087 18.8511C29.1087 22.5001 26.1518 25.4569 22.5029 25.4569Z" fill="#01B7E6"/>
<path d="M40.5797 14.9506C38.3778 5.26207 29.9265 0.900146 22.5029 0.900146C22.5029 0.900146 22.5029 0.900146 22.4819 0.900146C15.0792 0.900146 6.60702 5.2411 4.40508 14.9296C1.9515 25.7505 8.57827 34.9148 14.5759 40.6817C16.7988 42.8207 19.6508 43.8903 22.5029 43.8903C25.3549 43.8903 28.2069 42.8207 30.4089 40.6817C36.4065 34.9148 43.0333 25.7715 40.5797 14.9506ZM22.5029 25.4569C18.854 25.4569 15.8971 22.5001 15.8971 18.8511C15.8971 15.2022 18.854 12.2453 22.5029 12.2453C26.1518 12.2453 29.1087 15.2022 29.1087 18.8511C29.1087 22.5001 26.1518 25.4569 22.5029 25.4569Z" fill="url(#paint0_linear_1976_70)"/>
<defs>
<filter id="filter0_f_1976_70" x="0.257812" y="44.1279" width="44.4688" height="11.8239" filterUnits="userSpaceOnUse" color-interpolation-filters="sRGB">
<feFlood flood-opacity="0" result="BackgroundImageFix"/>
<feBlend mode="normal" in="SourceGraphic" in2="BackgroundImageFix" result="shape"/>
<feGaussianBlur stdDeviation="2" result="effect1_foregroundBlur_1976_70"/>
</filter>
<linearGradient id="paint0_linear_1976_70" x1="34.3232" y1="0.900146" x2="32.8699" y2="43.8903" gradientUnits="userSpaceOnUse">
<stop stop-color="#74D6EF"/>
<stop offset="1" stop-color="#01B7E6"/>
</linearGradient>
</defs>
</svg>
