<svg width="15" height="15" viewBox="0 0 15 15" fill="none" xmlns="http://www.w3.org/2000/svg">
<path d="M7.2712 0.574396C7.33362 0.382265 7.60544 0.382265 7.66786 0.574397L9.25986 5.47406C9.28778 5.55998 9.36785 5.61815 9.4582 5.61815H14.61C14.812 5.61815 14.896 5.87667 14.7326 5.99541L10.5647 9.02357C10.4916 9.07667 10.461 9.1708 10.4889 9.25672L12.0809 14.1564C12.1433 14.3485 11.9234 14.5083 11.76 14.3895L7.59211 11.3614C7.51902 11.3083 7.42004 11.3083 7.34695 11.3614L3.17905 14.3895C3.01562 14.5083 2.79571 14.3485 2.85814 14.1564L4.45014 9.25672C4.47806 9.1708 4.44747 9.07667 4.37438 9.02357L0.206481 5.99541C0.0430439 5.87667 0.127039 5.61815 0.329059 5.61815H5.48087C5.57121 5.61815 5.65128 5.55998 5.6792 5.47406L7.2712 0.574396Z" fill="black"/>
</svg>
