<svg width="18" height="17" viewBox="0 0 18 17" fill="none" xmlns="http://www.w3.org/2000/svg">
<path d="M8.42221 0.888029C8.63766 0.431912 9.2866 0.431911 9.50205 0.888028L11.5572 5.23897C11.6443 5.42324 11.8193 5.5504 12.0214 5.57623L16.7945 6.18632C17.2949 6.25028 17.4954 6.86745 17.1282 7.2133L13.6253 10.5124C13.477 10.6521 13.4101 10.8579 13.448 11.0581L14.3427 15.7861C14.4365 16.2818 13.9115 16.6632 13.4691 16.4208L9.24903 14.1089C9.0703 14.0109 8.85396 14.0109 8.67523 14.1089L4.45513 16.4208C4.01273 16.6632 3.48773 16.2818 3.58153 15.7861L4.47626 11.0581C4.51416 10.8579 4.44731 10.6521 4.29895 10.5124L0.796052 7.21331C0.428837 6.86745 0.629368 6.25028 1.12974 6.18632L5.90281 5.57623C6.10497 5.5504 6.27998 5.42324 6.36702 5.23897L8.42221 0.888029Z" fill="#FDD836"/>
</svg>
