<svg width="18" height="24" viewBox="0 0 18 24" fill="none" xmlns="http://www.w3.org/2000/svg">
<path d="M9.02929 10.9587C8.92095 10.9479 8.79094 10.9479 8.67176 10.9587C6.09315 10.8721 4.04544 8.75935 4.04544 6.15908C4.04544 3.50463 6.19066 1.34857 8.85594 1.34857C11.5104 1.34857 13.6664 3.50463 13.6664 6.15908C13.6556 8.75935 11.6079 10.8721 9.02929 10.9587Z" stroke="#171717" stroke-width="1.62517" stroke-linecap="round" stroke-linejoin="round"/>
<path d="M3.61196 14.9567C0.990022 16.7119 0.990022 19.5722 3.61196 21.3165C6.59144 23.31 11.4778 23.31 14.4573 21.3165C17.0792 19.5613 17.0792 16.701 14.4573 14.9567C11.4886 12.974 6.60228 12.974 3.61196 14.9567Z" stroke="#171717" stroke-width="1.62517" stroke-linecap="round" stroke-linejoin="round"/>
</svg>
