<svg width="135" height="104" viewBox="0 0 135 104" fill="none" xmlns="http://www.w3.org/2000/svg">
<path d="M30.4642 95.5366C30.4642 96.3695 29.8351 97.4108 29.2061 97.8273L23.7542 102.409C23.1251 102.825 22.2864 103.242 21.6573 103.242C20.6088 103.242 19.7701 102.825 19.141 102.2L1.9466 82.8337C1.10785 82.0007 0.688474 80.9595 0.898162 80.1265C0.898162 79.2935 1.52723 78.2523 2.15629 77.8358L7.81787 73.4627C9.076 72.2132 11.1729 72.4215 12.431 73.6709L29.6254 93.0376C30.2545 93.6624 30.6739 94.4953 30.4642 95.5366Z" fill="#EAF4FE"/>
<path d="M30.4642 95.5366C30.4642 96.3695 29.8351 97.4108 29.2061 97.8273L23.7542 102.409C23.1251 102.825 22.2864 103.242 21.6573 103.242C20.6088 103.242 19.7701 102.825 19.141 102.2L1.9466 82.8337C1.10785 82.0007 0.688474 80.9595 0.898162 80.1265C0.898162 79.2935 1.52723 78.2523 2.15629 77.8358L7.81787 73.4627C9.076 72.2132 11.1729 72.4215 12.431 73.6709L29.6254 93.0376C30.2545 93.6624 30.6739 94.4953 30.4642 95.5366Z" fill="#EAF4FE"/>
<path d="M30.4642 95.5366C30.4642 96.3695 29.8351 97.4108 29.2061 97.8273L23.7542 102.409C23.1251 102.825 22.2864 103.242 21.6573 103.242C20.6088 103.242 19.7701 102.825 19.141 102.2L1.9466 82.8337C1.10785 82.0007 0.688474 80.9595 0.898162 80.1265C0.898162 79.2935 1.52723 78.2523 2.15629 77.8358L7.81787 73.4627C9.076 72.2132 11.1729 72.4215 12.431 73.6709L29.6254 93.0376C30.2545 93.6624 30.6739 94.4953 30.4642 95.5366Z" fill="url(#paint0_linear_1805_350)"/>
<path d="M130.276 60.135C130.066 60.3432 129.437 61.5927 126.082 63.2586C125.034 63.8834 99.4516 76.1698 90.6447 81.5841C87.4994 83.4583 83.9347 84.2913 80.37 83.4583C80.1603 83.4583 48.078 78.4605 31.3029 88.4562L17.8829 73.4626C22.9154 71.3802 29.8351 68.0483 35.7064 64.7164C46.6102 58.2608 44.723 54.5124 58.7721 57.636C84.5637 63.8834 86.8703 60.968 90.6447 62.8422C93.3706 64.2999 92.3222 66.1741 92.1125 67.4235C92.1125 67.4235 91.9028 67.84 91.4834 67.84C90.6447 68.4647 87.9187 69.9225 80.1603 68.8812C78.9021 68.673 66.7402 67.84 61.0787 71.7967C60.0302 72.4214 59.8205 73.8791 60.4496 74.7121C61.0787 75.7533 62.5465 75.9615 63.3852 75.3368C67.1596 72.8379 76.3859 72.8379 79.5312 73.2544C87.9187 74.5038 96.9353 73.6709 96.5159 65.3411L124.404 57.8443C124.404 57.8443 129.018 56.8031 130.276 60.135Z" fill="#EAF4FE"/>
<path d="M130.276 60.135C130.066 60.3432 129.437 61.5927 126.082 63.2586C125.034 63.8834 99.4516 76.1698 90.6447 81.5841C87.4994 83.4583 83.9347 84.2913 80.37 83.4583C80.1603 83.4583 48.078 78.4605 31.3029 88.4562L17.8829 73.4626C22.9154 71.3802 29.8351 68.0483 35.7064 64.7164C46.6102 58.2608 44.723 54.5124 58.7721 57.636C84.5637 63.8834 86.8703 60.968 90.6447 62.8422C93.3706 64.2999 92.3222 66.1741 92.1125 67.4235C92.1125 67.4235 91.9028 67.84 91.4834 67.84C90.6447 68.4647 87.9187 69.9225 80.1603 68.8812C78.9021 68.673 66.7402 67.84 61.0787 71.7967C60.0302 72.4214 59.8205 73.8791 60.4496 74.7121C61.0787 75.7533 62.5465 75.9615 63.3852 75.3368C67.1596 72.8379 76.3859 72.8379 79.5312 73.2544C87.9187 74.5038 96.9353 73.6709 96.5159 65.3411L124.404 57.8443C124.404 57.8443 129.018 56.8031 130.276 60.135Z" fill="#EAF4FE"/>
<path d="M130.276 60.135C130.066 60.3432 129.437 61.5927 126.082 63.2586C125.034 63.8834 99.4516 76.1698 90.6447 81.5841C87.4994 83.4583 83.9347 84.2913 80.37 83.4583C80.1603 83.4583 48.078 78.4605 31.3029 88.4562L17.8829 73.4626C22.9154 71.3802 29.8351 68.0483 35.7064 64.7164C46.6102 58.2608 44.723 54.5124 58.7721 57.636C84.5637 63.8834 86.8703 60.968 90.6447 62.8422C93.3706 64.2999 92.3222 66.1741 92.1125 67.4235C92.1125 67.4235 91.9028 67.84 91.4834 67.84C90.6447 68.4647 87.9187 69.9225 80.1603 68.8812C78.9021 68.673 66.7402 67.84 61.0787 71.7967C60.0302 72.4214 59.8205 73.8791 60.4496 74.7121C61.0787 75.7533 62.5465 75.9615 63.3852 75.3368C67.1596 72.8379 76.3859 72.8379 79.5312 73.2544C87.9187 74.5038 96.9353 73.6709 96.5159 65.3411L124.404 57.8443C124.404 57.8443 129.018 56.8031 130.276 60.135Z" fill="url(#paint1_linear_1805_350)"/>
<path d="M60.4496 38.2693L61.0787 29.7313C61.0787 28.6901 60.2399 27.6489 59.1915 27.4406C57.9333 27.4406 57.0946 28.2736 56.8849 29.3148L56.4655 34.3127L45.352 23.2758C44.5133 22.4428 43.2552 22.4428 42.4164 23.2758C41.5777 24.1087 41.5777 25.3582 42.4164 26.1912L53.3202 37.0199L48.9167 37.2281C47.8683 37.2281 46.8199 38.2693 46.8199 39.3106C46.8199 40.3518 47.8683 41.393 48.9167 41.393L57.0946 40.9765L72.4018 56.1783C56.2558 53.4712 52.2718 50.3475 44.723 53.2629C28.9964 41.6012 19.5604 22.8593 19.5604 2.65959C19.5604 1.41013 20.3992 0.577148 21.6573 0.577148C38.8517 0.577148 54.788 7.24096 66.9499 19.3191C74.0793 26.3994 79.3215 34.7292 82.4668 44.1002C80.5796 47.8486 79.1118 51.8052 78.2731 55.9701L60.4496 38.2693Z" fill="#EAF4FE"/>
<path d="M60.4496 38.2693L61.0787 29.7313C61.0787 28.6901 60.2399 27.6489 59.1915 27.4406C57.9333 27.4406 57.0946 28.2736 56.8849 29.3148L56.4655 34.3127L45.352 23.2758C44.5133 22.4428 43.2552 22.4428 42.4164 23.2758C41.5777 24.1087 41.5777 25.3582 42.4164 26.1912L53.3202 37.0199L48.9167 37.2281C47.8683 37.2281 46.8199 38.2693 46.8199 39.3106C46.8199 40.3518 47.8683 41.393 48.9167 41.393L57.0946 40.9765L72.4018 56.1783C56.2558 53.4712 52.2718 50.3475 44.723 53.2629C28.9964 41.6012 19.5604 22.8593 19.5604 2.65959C19.5604 1.41013 20.3992 0.577148 21.6573 0.577148C38.8517 0.577148 54.788 7.24096 66.9499 19.3191C74.0793 26.3994 79.3215 34.7292 82.4668 44.1002C80.5796 47.8486 79.1118 51.8052 78.2731 55.9701L60.4496 38.2693Z" fill="#EAF4FE"/>
<path d="M60.4496 38.2693L61.0787 29.7313C61.0787 28.6901 60.2399 27.6489 59.1915 27.4406C57.9333 27.4406 57.0946 28.2736 56.8849 29.3148L56.4655 34.3127L45.352 23.2758C44.5133 22.4428 43.2552 22.4428 42.4164 23.2758C41.5777 24.1087 41.5777 25.3582 42.4164 26.1912L53.3202 37.0199L48.9167 37.2281C47.8683 37.2281 46.8199 38.2693 46.8199 39.3106C46.8199 40.3518 47.8683 41.393 48.9167 41.393L57.0946 40.9765L72.4018 56.1783C56.2558 53.4712 52.2718 50.3475 44.723 53.2629C28.9964 41.6012 19.5604 22.8593 19.5604 2.65959C19.5604 1.41013 20.3992 0.577148 21.6573 0.577148C38.8517 0.577148 54.788 7.24096 66.9499 19.3191C74.0793 26.3994 79.3215 34.7292 82.4668 44.1002C80.5796 47.8486 79.1118 51.8052 78.2731 55.9701L60.4496 38.2693Z" fill="url(#paint2_linear_1805_350)"/>
<path d="M78.0634 61.3845H77.4343V60.968C77.644 60.968 77.2246 60.7597 78.0634 61.3845Z" fill="#EAF4FE"/>
<path d="M78.0634 61.3845H77.4343V60.968C77.644 60.968 77.2246 60.7597 78.0634 61.3845Z" fill="#EAF4FE"/>
<path d="M78.0634 61.3845H77.4343V60.968C77.644 60.968 77.2246 60.7597 78.0634 61.3845Z" fill="url(#paint3_linear_1805_350)"/>
<path d="M134.679 19.1109C134.679 32.4385 129.437 45.1414 120.42 54.5124L95.2578 61.3844C94.8384 60.968 94.6287 60.5515 94.2094 60.3432L104.274 50.3475L110.565 50.5558C111.613 50.5558 112.662 49.7228 112.662 48.4733C112.662 47.4321 111.823 46.3909 110.565 46.3909L108.049 46.1826L116.017 38.2693C116.856 37.4364 116.856 36.1869 116.017 35.3539C115.178 34.5209 113.92 34.5209 113.081 35.3539L105.113 43.4754L104.903 40.3518C104.903 39.1023 103.855 38.2693 102.597 38.4776C101.548 38.4776 100.5 39.5188 100.71 40.7683L101.339 47.4321L90.2253 58.469C87.9187 57.8443 87.4994 58.2608 82.2571 57.8443C84.354 48.0568 89.1768 39.3106 96.3062 32.2303C106.162 22.4428 119.162 17.2367 132.792 17.2367C133.84 17.0284 134.679 17.8614 134.679 19.1109Z" fill="#EAF4FE"/>
<path d="M134.679 19.1109C134.679 32.4385 129.437 45.1414 120.42 54.5124L95.2578 61.3844C94.8384 60.968 94.6287 60.5515 94.2094 60.3432L104.274 50.3475L110.565 50.5558C111.613 50.5558 112.662 49.7228 112.662 48.4733C112.662 47.4321 111.823 46.3909 110.565 46.3909L108.049 46.1826L116.017 38.2693C116.856 37.4364 116.856 36.1869 116.017 35.3539C115.178 34.5209 113.92 34.5209 113.081 35.3539L105.113 43.4754L104.903 40.3518C104.903 39.1023 103.855 38.2693 102.597 38.4776C101.548 38.4776 100.5 39.5188 100.71 40.7683L101.339 47.4321L90.2253 58.469C87.9187 57.8443 87.4994 58.2608 82.2571 57.8443C84.354 48.0568 89.1768 39.3106 96.3062 32.2303C106.162 22.4428 119.162 17.2367 132.792 17.2367C133.84 17.0284 134.679 17.8614 134.679 19.1109Z" fill="#EAF4FE"/>
<path d="M134.679 19.1109C134.679 32.4385 129.437 45.1414 120.42 54.5124L95.2578 61.3844C94.8384 60.968 94.6287 60.5515 94.2094 60.3432L104.274 50.3475L110.565 50.5558C111.613 50.5558 112.662 49.7228 112.662 48.4733C112.662 47.4321 111.823 46.3909 110.565 46.3909L108.049 46.1826L116.017 38.2693C116.856 37.4364 116.856 36.1869 116.017 35.3539C115.178 34.5209 113.92 34.5209 113.081 35.3539L105.113 43.4754L104.903 40.3518C104.903 39.1023 103.855 38.2693 102.597 38.4776C101.548 38.4776 100.5 39.5188 100.71 40.7683L101.339 47.4321L90.2253 58.469C87.9187 57.8443 87.4994 58.2608 82.2571 57.8443C84.354 48.0568 89.1768 39.3106 96.3062 32.2303C106.162 22.4428 119.162 17.2367 132.792 17.2367C133.84 17.0284 134.679 17.8614 134.679 19.1109Z" fill="url(#paint4_linear_1805_350)"/>
<defs>
<linearGradient id="paint0_linear_1805_350" x1="108.468" y1="17.2048" x2="108.468" y2="61.3844" gradientUnits="userSpaceOnUse">
<stop offset="0.352288" stop-color="#74D6EF"/>
<stop offset="0.709394" stop-color="#01B7E6"/>
</linearGradient>
<linearGradient id="paint1_linear_1805_350" x1="108.468" y1="17.2048" x2="108.468" y2="61.3844" gradientUnits="userSpaceOnUse">
<stop offset="0.352288" stop-color="#74D6EF"/>
<stop offset="0.709394" stop-color="#01B7E6"/>
</linearGradient>
<linearGradient id="paint2_linear_1805_350" x1="108.468" y1="17.2048" x2="108.468" y2="61.3844" gradientUnits="userSpaceOnUse">
<stop offset="0.352288" stop-color="#74D6EF"/>
<stop offset="0.709394" stop-color="#01B7E6"/>
</linearGradient>
<linearGradient id="paint3_linear_1805_350" x1="108.468" y1="17.2048" x2="108.468" y2="61.3844" gradientUnits="userSpaceOnUse">
<stop offset="0.352288" stop-color="#74D6EF"/>
<stop offset="0.709394" stop-color="#01B7E6"/>
</linearGradient>
<linearGradient id="paint4_linear_1805_350" x1="108.468" y1="17.2048" x2="108.468" y2="61.3844" gradientUnits="userSpaceOnUse">
<stop offset="0.352288" stop-color="#74D6EF"/>
<stop offset="0.709394" stop-color="#01B7E6"/>
</linearGradient>
</defs>
</svg>
