<svg width="112" height="115" viewBox="0 0 112 115" fill="none" xmlns="http://www.w3.org/2000/svg">
<path d="M111.816 34.1289C111.632 30.0534 110.94 23.5468 109.797 19.6796C109.259 17.8611 108.392 16.6818 106.363 16.5704C103.862 16.4324 100.314 17.3041 97.6406 17.309C85.8066 17.3332 73.8782 12.8412 65.7903 4.11891C63.9427 2.126 63.4487 -0.336697 60.1264 0.140344C58.1795 0.418819 57.2036 2.88151 55.9928 4.23514C48.6483 12.4417 38.105 16.2677 27.2202 16.7859C26.7723 16.6818 24.9174 14.4201 24.5299 13.897C23.0213 11.8702 22.1423 8.43165 19.1735 8.33721C16.0715 8.23793 15.9238 11.122 14.9891 13.1149C13.1899 16.9433 10.8144 20.3795 7.55262 23.1134C5.89145 24.5057 1.3414 26.5204 0.956381 28.3826C-0.12362 33.5865 6.91576 33.4993 9.80706 36.0031C9.63029 52.8303 12.7395 70.0667 21.8663 84.3659C29.2761 95.9746 40.7808 105.992 53.2831 111.792C55.54 112.838 59.1335 114.611 61.5696 114.422C63.8822 114.243 70.6697 110.453 72.9822 109.126C100.856 93.1439 113.255 65.955 111.816 34.1289ZM19.9097 19.7353C22.4547 22.6073 25.3533 25.237 28.7361 27.1258L28.988 27.7167C25.7988 29.8791 23.5032 33.2523 21.3529 36.439C18.3381 33.7511 15.5872 30.8429 12.0421 28.8112C15.27 26.2904 17.5269 23.0092 19.9097 19.7353ZM95.8657 76.5564C88.2427 90.548 75.3771 100.885 60.8334 107.058C34.9715 97.1709 18.8127 73.5901 17.355 46.0137L17.6044 43.706C18.5124 46.1832 20.222 48.4885 23.186 47.7064C25.2298 47.1664 25.2515 44.9967 25.9659 43.4663C27.9128 39.2988 30.3101 35.6811 33.9594 32.814C36.5238 30.7993 41.9431 29.1357 39.8316 24.99C39.1487 23.6485 37.7466 23.5129 36.7393 22.6387C44.0426 21.3021 51.1837 18.1008 56.9517 13.4273C58.3683 12.2795 59.5767 10.9016 61.0417 9.81918C67.2771 16.4154 75.675 20.6579 84.4869 22.7138C90.6231 24.1449 97.0425 24.6123 103.326 24.0917L104.54 34.6253C105.128 49.0963 102.828 63.778 95.8657 76.5564Z" fill="black"/>
<path d="M111.816 34.1289C111.632 30.0534 110.94 23.5468 109.797 19.6796C109.259 17.8611 108.392 16.6818 106.363 16.5704C103.862 16.4324 100.314 17.3041 97.6406 17.309C85.8066 17.3332 73.8782 12.8412 65.7903 4.11891C63.9427 2.126 63.4487 -0.336697 60.1264 0.140344C58.1795 0.418819 57.2036 2.88151 55.9928 4.23514C48.6483 12.4417 38.105 16.2677 27.2202 16.7859C26.7723 16.6818 24.9174 14.4201 24.5299 13.897C23.0213 11.8702 22.1423 8.43165 19.1735 8.33721C16.0715 8.23793 15.9238 11.122 14.9891 13.1149C13.1899 16.9433 10.8144 20.3795 7.55262 23.1134C5.89145 24.5057 1.3414 26.5204 0.956381 28.3826C-0.12362 33.5865 6.91576 33.4993 9.80706 36.0031C9.63029 52.8303 12.7395 70.0667 21.8663 84.3659C29.2761 95.9746 40.7808 105.992 53.2831 111.792C55.54 112.838 59.1335 114.611 61.5696 114.422C63.8822 114.243 70.6697 110.453 72.9822 109.126C100.856 93.1439 113.255 65.955 111.816 34.1289ZM19.9097 19.7353C22.4547 22.6073 25.3533 25.237 28.7361 27.1258L28.988 27.7167C25.7988 29.8791 23.5032 33.2523 21.3529 36.439C18.3381 33.7511 15.5872 30.8429 12.0421 28.8112C15.27 26.2904 17.5269 23.0092 19.9097 19.7353ZM95.8657 76.5564C88.2427 90.548 75.3771 100.885 60.8334 107.058C34.9715 97.1709 18.8127 73.5901 17.355 46.0137L17.6044 43.706C18.5124 46.1832 20.222 48.4885 23.186 47.7064C25.2298 47.1664 25.2515 44.9967 25.9659 43.4663C27.9128 39.2988 30.3101 35.6811 33.9594 32.814C36.5238 30.7993 41.9431 29.1357 39.8316 24.99C39.1487 23.6485 37.7466 23.5129 36.7393 22.6387C44.0426 21.3021 51.1837 18.1008 56.9517 13.4273C58.3683 12.2795 59.5767 10.9016 61.0417 9.81918C67.2771 16.4154 75.675 20.6579 84.4869 22.7138C90.6231 24.1449 97.0425 24.6123 103.326 24.0917L104.54 34.6253C105.128 49.0963 102.828 63.778 95.8657 76.5564Z" fill="url(#paint0_linear_1805_345)"/>
<path d="M81.6779 35.33C65.6039 20.3819 39.432 26.6827 32.3127 47.3916C23.9173 71.8223 47.8153 94.8172 71.9095 85.5354C92.4441 77.6243 97.8755 50.3918 81.6779 35.33ZM80.1839 69.8367C70.8077 84.4191 49.0624 83.5934 40.7275 68.408C32.5549 53.5108 43.0473 35.0612 59.9351 34.3323C78.4718 33.5308 90.2574 54.1694 80.1839 69.8367Z" fill="black"/>
<path d="M81.6779 35.33C65.6039 20.3819 39.432 26.6827 32.3127 47.3916C23.9173 71.8223 47.8153 94.8172 71.9095 85.5354C92.4441 77.6243 97.8755 50.3918 81.6779 35.33ZM80.1839 69.8367C70.8077 84.4191 49.0624 83.5934 40.7275 68.408C32.5549 53.5108 43.0473 35.0612 59.9351 34.3323C78.4718 33.5308 90.2574 54.1694 80.1839 69.8367Z" fill="url(#paint1_linear_1805_345)"/>
<path d="M76.8954 51.5324C71.2872 56.9953 66.2867 63.5892 60.7172 69.0158C58.9761 70.7109 57.2811 71.2073 55.1574 69.7205C51.6268 67.2481 48.2682 62.7101 44.6092 60.1675C41.2796 56.6006 45.3744 51.5203 49.6872 54.8475C51.961 56.6031 54.2348 59.521 56.4747 61.1362C56.729 61.3202 57.0825 61.6495 57.407 61.5866C58.4264 60.6761 59.3999 59.7002 60.3516 58.7195C63.8313 55.1332 67.11 50.9464 70.6334 47.4521C71.355 46.7353 72.1856 45.8854 73.2389 45.6965C76.7065 45.0766 78.9198 48.7089 76.8954 51.5324Z" fill="black"/>
<path d="M76.8954 51.5324C71.2872 56.9953 66.2867 63.5892 60.7172 69.0158C58.9761 70.7109 57.2811 71.2073 55.1574 69.7205C51.6268 67.2481 48.2682 62.7101 44.6092 60.1675C41.2796 56.6006 45.3744 51.5203 49.6872 54.8475C51.961 56.6031 54.2348 59.521 56.4747 61.1362C56.729 61.3202 57.0825 61.6495 57.407 61.5866C58.4264 60.6761 59.3999 59.7002 60.3516 58.7195C63.8313 55.1332 67.11 50.9464 70.6334 47.4521C71.355 46.7353 72.1856 45.8854 73.2389 45.6965C76.7065 45.0766 78.9198 48.7089 76.8954 51.5324Z" fill="url(#paint2_linear_1805_345)"/>
<defs>
<linearGradient id="paint0_linear_1805_345" x1="90.1729" y1="18.6014" x2="90.1729" y2="67.8121" gradientUnits="userSpaceOnUse">
<stop offset="0.352288" stop-color="#74D6EF"/>
<stop offset="0.709394" stop-color="#01B7E6"/>
</linearGradient>
<linearGradient id="paint1_linear_1805_345" x1="90.1729" y1="18.6014" x2="90.1729" y2="67.8121" gradientUnits="userSpaceOnUse">
<stop offset="0.352288" stop-color="#74D6EF"/>
<stop offset="0.709394" stop-color="#01B7E6"/>
</linearGradient>
<linearGradient id="paint2_linear_1805_345" x1="90.1729" y1="18.6014" x2="90.1729" y2="67.8121" gradientUnits="userSpaceOnUse">
<stop offset="0.352288" stop-color="#74D6EF"/>
<stop offset="0.709394" stop-color="#01B7E6"/>
</linearGradient>
</defs>
</svg>
