<svg width="108" height="48" viewBox="0 0 108 48" fill="none" xmlns="http://www.w3.org/2000/svg">
<g filter="url(#filter0_dddd_1754_23)">
<path d="M16.1045 5.39688L15.7807 9.68462C16.6737 9.28924 17.5565 8.87342 18.429 8.43715V4.21417C17.6621 4.62659 16.8884 5.02196 16.1045 5.39688ZM33.1157 9.13928C30.9343 8.48487 28.7802 7.70776 26.6739 6.82158C26.8477 8.18834 27.0454 9.68462 27.2328 11.0889C28.2894 11.4945 29.3597 11.8762 30.4367 12.2273C29.1892 18.1238 26.1149 23.5635 21.7147 27.7081C21.1148 28.2739 20.4877 28.8158 19.8401 29.3339C19.1891 28.8158 18.5619 28.2739 17.9621 27.7047C13.5652 23.5567 10.4875 18.1169 9.24002 12.2068C10.3171 11.8523 11.3873 11.4706 12.4473 11.065C12.6382 9.66076 12.8324 8.16107 13.0097 6.79772C10.8999 7.68731 8.74581 8.46442 6.55763 9.12223L5 9.58918L5.2454 11.2013C6.59512 19.9677 11.5134 27.991 18.7426 33.2058L19.8401 34L20.9376 33.2058C28.1633 27.991 33.0816 19.9779 34.4313 11.2184L34.6767 9.60622L33.1157 9.13928ZM23.5722 5.42415C22.7883 5.04582 22.0146 4.65385 21.2477 4.24485V8.4576C22.1203 8.89387 23.003 9.3097 23.896 9.70507L23.5722 5.42415Z" fill="#EAF4FE"/>
<path d="M16.1045 5.39688L15.7807 9.68462C16.6737 9.28924 17.5565 8.87342 18.429 8.43715V4.21417C17.6621 4.62659 16.8884 5.02196 16.1045 5.39688ZM33.1157 9.13928C30.9343 8.48487 28.7802 7.70776 26.6739 6.82158C26.8477 8.18834 27.0454 9.68462 27.2328 11.0889C28.2894 11.4945 29.3597 11.8762 30.4367 12.2273C29.1892 18.1238 26.1149 23.5635 21.7147 27.7081C21.1148 28.2739 20.4877 28.8158 19.8401 29.3339C19.1891 28.8158 18.5619 28.2739 17.9621 27.7047C13.5652 23.5567 10.4875 18.1169 9.24002 12.2068C10.3171 11.8523 11.3873 11.4706 12.4473 11.065C12.6382 9.66076 12.8324 8.16107 13.0097 6.79772C10.8999 7.68731 8.74581 8.46442 6.55763 9.12223L5 9.58918L5.2454 11.2013C6.59512 19.9677 11.5134 27.991 18.7426 33.2058L19.8401 34L20.9376 33.2058C28.1633 27.991 33.0816 19.9779 34.4313 11.2184L34.6767 9.60622L33.1157 9.13928ZM23.5722 5.42415C22.7883 5.04582 22.0146 4.65385 21.2477 4.24485V8.4576C22.1203 8.89387 23.003 9.3097 23.896 9.70507L23.5722 5.42415Z" fill="url(#paint0_linear_1754_23)"/>
</g>
<path d="M24.1415 21.0992C21.7147 22.1456 21.7147 24.3508 21.7147 24.3508V27.7081C21.1148 28.2738 20.4877 28.8158 19.8401 29.3338C19.1891 28.8158 18.562 28.2738 17.9621 27.7046V24.3508C17.9621 24.3508 17.9621 22.1456 15.5353 21.0992C13.1086 20.0528 11.2885 18.7815 11.8952 14.9198C12.0554 13.9075 12.2496 12.5374 12.4473 11.065C12.6382 9.6607 12.8325 8.16101 13.0097 6.79766C13.2858 4.62312 13.5107 2.78941 13.5823 2.20999C13.6096 1.95777 13.6948 1.71577 13.8414 1.51127C14.0254 1.25564 14.3458 1.00002 14.8707 1.00002C14.9286 1.00002 14.9866 1.00342 15.0411 1.01024C15.825 1.09545 16.3738 1.84188 16.3158 2.63263L16.1045 5.39682L15.7807 9.68456L15.5217 13.0895C15.4808 13.6349 15.6717 14.187 16.0807 14.5517C16.3022 14.7494 16.5919 14.9028 16.9532 14.9028C17.2395 14.9028 17.4781 14.8176 17.6758 14.7017C18.1598 14.412 18.429 13.87 18.429 13.3043V2.55764C18.429 1.78735 19.0357 1.13294 19.806 1.11931H19.8708C20.6411 1.13294 21.2478 1.78735 21.2478 2.55764V13.3043C21.2478 13.87 21.5136 14.412 21.9976 14.7017C22.1953 14.8176 22.4407 14.9028 22.727 14.9028C23.0849 14.9028 23.3712 14.7494 23.5961 14.5517C24.0051 14.187 24.196 13.6349 24.1517 13.0895L23.8961 9.70501L23.5723 5.42409L23.361 2.63263C23.2996 1.84188 23.8484 1.09545 24.6357 1.01024C24.6936 1.00342 24.7482 1.00002 24.8061 1.00002C25.3344 1.00002 25.648 1.25564 25.832 1.51127C25.982 1.71577 26.0638 1.95777 26.0945 2.20999C26.166 2.79282 26.3944 4.63675 26.6739 6.82152C26.8477 8.18828 27.0454 9.68456 27.2329 11.0888C27.4306 12.551 27.6248 13.9144 27.7816 14.9198C28.3883 18.7815 26.5682 20.0528 24.1415 21.0992Z" fill="#EAF4FE"/>
<g filter="url(#filter1_ddddd_1754_23)">
<path d="M18.1235 31.8749V28.3277L19.8383 29.7975L21.5531 28.3277V31.8749L19.8383 33.5897L18.1235 31.8749Z" fill="#D9D9D9"/>
</g>
<g filter="url(#filter2_ddddd_1754_23)">
<path d="M27.224 10.9307L26.5875 6.84241L23.6743 5.76524L24.1149 9.90248L27.224 10.9307Z" fill="#D9D9D9"/>
</g>
<g filter="url(#filter3_ddddd_1754_23)">
<path d="M12.6141 10.7821L13.214 6.92896L15.9597 5.91374L15.5444 9.81307L12.6141 10.7821Z" fill="#D9D9D9"/>
</g>
<g filter="url(#filter4_ddddd_1754_23)">
<rect x="18.531" y="4.33612" width="2.61435" height="3.86555" fill="#D9D9D9"/>
</g>
<path d="M12.4472 11.065C12.2495 12.5374 12.0552 13.9075 11.895 14.9198H27.7815C27.6247 13.9144 27.4304 12.551 27.2327 11.0888C27.0453 9.68456 26.8476 8.18828 26.6737 6.82152C26.3943 4.63675 26.1659 2.79282 26.0943 2.20999C26.0636 1.95777 25.9818 1.71577 25.8319 1.51127C25.6478 1.25564 25.3342 1.00002 24.806 1.00002C24.748 1.00002 24.6935 1.00342 24.6355 1.01024C23.8482 1.09545 23.2994 1.84188 23.3608 2.63263L23.5721 5.42409L23.8959 9.70501L24.1515 13.0895C24.1959 13.6349 24.005 14.187 23.596 14.5517C23.371 14.7494 23.0847 14.9028 22.7268 14.9028C22.4405 14.9028 22.1951 14.8176 21.9974 14.7017C21.5135 14.412 21.2476 13.87 21.2476 13.3043V2.55764C21.2476 1.78735 20.6409 1.13294 19.8706 1.11931H19.8059C19.0356 1.13294 18.4289 1.78735 18.4289 2.55764V13.3043C18.4289 13.87 18.1596 14.412 17.6756 14.7017C17.4779 14.8176 17.2394 14.9028 16.9531 14.9028C16.5918 14.9028 16.3021 14.7494 16.0805 14.5517C15.6715 14.187 15.4806 13.6349 15.5215 13.0895L15.7806 9.68456L16.1044 5.39682L16.3157 2.63263C16.3736 1.84188 15.8249 1.09545 15.041 1.01024C14.9864 1.00342 14.9285 1.00002 14.8705 1.00002C14.3456 1.00002 14.0253 1.25564 13.8412 1.51127C13.6946 1.71577 13.6094 1.95777 13.5822 2.20999C13.5106 2.78941 13.2856 4.62312 13.0096 6.79766C12.8323 8.16101 12.638 9.6607 12.4472 11.065Z" fill="#74D6EF"/>
<path d="M12.4472 11.065C12.2495 12.5374 12.0552 13.9075 11.895 14.9198H27.7815C27.6247 13.9144 27.4304 12.551 27.2327 11.0888C27.0453 9.68456 26.8476 8.18828 26.6737 6.82152C26.3943 4.63675 26.1659 2.79282 26.0943 2.20999C26.0636 1.95777 25.9818 1.71577 25.8319 1.51127C25.6478 1.25564 25.3342 1.00002 24.806 1.00002C24.748 1.00002 24.6935 1.00342 24.6355 1.01024C23.8482 1.09545 23.2994 1.84188 23.3608 2.63263L23.5721 5.42409L23.8959 9.70501L24.1515 13.0895C24.1959 13.6349 24.005 14.187 23.596 14.5517C23.371 14.7494 23.0847 14.9028 22.7268 14.9028C22.4405 14.9028 22.1951 14.8176 21.9974 14.7017C21.5135 14.412 21.2476 13.87 21.2476 13.3043V2.55764C21.2476 1.78735 20.6409 1.13294 19.8706 1.11931H19.8059C19.0356 1.13294 18.4289 1.78735 18.4289 2.55764V13.3043C18.4289 13.87 18.1596 14.412 17.6756 14.7017C17.4779 14.8176 17.2394 14.9028 16.9531 14.9028C16.5918 14.9028 16.3021 14.7494 16.0805 14.5517C15.6715 14.187 15.4806 13.6349 15.5215 13.0895L15.7806 9.68456L16.1044 5.39682L16.3157 2.63263C16.3736 1.84188 15.8249 1.09545 15.041 1.01024C14.9864 1.00342 14.9285 1.00002 14.8705 1.00002C14.3456 1.00002 14.0253 1.25564 13.8412 1.51127C13.6946 1.71577 13.6094 1.95777 13.5822 2.20999C13.5106 2.78941 13.2856 4.62312 13.0096 6.79766C12.8323 8.16101 12.638 9.6607 12.4472 11.065Z" fill="#EAF4FE"/>
<path d="M19.84 29.334C20.4876 28.8159 23.8197 25.7188 24.4196 25.153V30.0637L19.84 34.0001L14.4612 29.334L15.2829 25.153C15.8828 25.7222 19.189 28.8159 19.84 29.334Z" fill="#01B7E6"/>
<path d="M38.645 14.9089V13.0226H47.533V14.9089H44.1121V24.7081H42.066V14.9089H38.645ZM52.1732 16.7792V18.5856H51.4539C50.0471 18.5856 49.1679 19.3369 49.1679 20.8715V24.7081H47.2177V16.8272H49.056L49.1679 17.9781C49.5036 17.1948 50.255 16.6673 51.31 16.6673C51.5818 16.6673 51.8535 16.6993 52.1732 16.7792ZM58.209 16.8112H60.1593V24.7081H58.3529L58.209 23.653C57.7295 24.4043 56.7064 24.9159 55.6513 24.9159C53.829 24.9159 52.758 23.685 52.758 21.7507V16.8112H54.7082V21.0634C54.7082 22.566 55.2997 23.1735 56.3867 23.1735C57.6176 23.1735 58.209 22.4541 58.209 20.9515V16.8112ZM60.7706 22.3102H62.6249C62.6409 22.9976 63.1525 23.4292 64.0477 23.4292C64.9588 23.4292 65.4544 23.0616 65.4544 22.4861C65.4544 22.0864 65.2466 21.7987 64.5432 21.6388L63.1205 21.3031C61.6978 20.9834 61.0104 20.312 61.0104 19.0492C61.0104 17.4986 62.3212 16.5714 64.1436 16.5714C65.918 16.5714 67.1169 17.5945 67.1329 19.1291H65.2785C65.2626 18.4577 64.815 18.0261 64.0636 18.0261C63.2963 18.0261 62.8487 18.3778 62.8487 18.9692C62.8487 19.4168 63.2004 19.7046 63.8718 19.8644L65.2945 20.2001C66.6213 20.5039 67.2927 21.1113 67.2927 22.3262C67.2927 23.9248 65.934 24.9159 63.9837 24.9159C62.0175 24.9159 60.7706 23.8608 60.7706 22.3102ZM70.8238 24.7081H68.8736V18.4417H67.3549V16.8112H68.8736V14.3494H70.8238V16.8112H72.3584V18.4417H70.8238V24.7081ZM72.244 28.3688V26.7382H73.411C74.1783 26.7382 74.6578 26.5624 74.9935 25.6352L75.2173 25.0438L72.0362 16.8112H74.0983L76.1285 22.566L78.2706 16.8112H80.2848L76.4163 26.4665C75.8248 27.9372 74.9935 28.5446 73.6987 28.5446C73.1552 28.5446 72.6756 28.4807 72.244 28.3688ZM81.0408 24.7081V13.0226H85.6926C87.9946 13.0226 89.4013 14.2215 89.4013 16.1718C89.4013 17.4666 88.8258 18.3938 87.7228 18.8573C88.9537 19.257 89.5771 20.1841 89.5771 21.5429C89.5771 23.5411 88.1864 24.7081 85.7726 24.7081H81.0408ZM85.5168 14.829H83.087V18.0101H85.5648C86.6838 18.0101 87.3072 17.4186 87.3072 16.3796C87.3072 15.3725 86.6678 14.829 85.5168 14.829ZM85.6926 19.7365H83.087V22.9017H85.6926C86.8436 22.9017 87.483 22.3422 87.483 21.2872C87.483 20.296 86.8276 19.7365 85.6926 19.7365ZM91.5013 15.2286C90.8299 15.2286 90.3024 14.7011 90.3024 14.0457C90.3024 13.3903 90.8299 12.8787 91.5013 12.8787C92.1407 12.8787 92.6682 13.3903 92.6682 14.0457C92.6682 14.7011 92.1407 15.2286 91.5013 15.2286ZM90.5262 24.7081V16.8112H92.4764V24.7081H90.5262ZM96.5375 24.7081H94.5873V18.4417H93.0686V16.8112H94.5873V14.3494H96.5375V16.8112H98.0721V18.4417H96.5375V24.7081ZM102.1 24.9159C99.75 24.9159 98.1035 23.2054 98.1035 20.7596C98.1035 18.2819 99.718 16.5714 102.036 16.5714C104.402 16.5714 105.904 18.154 105.904 20.6158V21.2072L99.9578 21.2232C100.102 22.614 100.837 23.3173 102.132 23.3173C103.203 23.3173 103.906 22.9017 104.13 22.1504H105.936C105.601 23.8768 104.162 24.9159 102.1 24.9159ZM102.052 18.17C100.901 18.17 100.198 18.7934 100.006 19.9763H103.97C103.97 18.8893 103.219 18.17 102.052 18.17Z" fill="#EAF4FE"/>
<defs>
<filter id="filter0_dddd_1754_23" x="0.868563" y="3.18131" width="37.9396" height="44.7623" filterUnits="userSpaceOnUse" color-interpolation-filters="sRGB">
<feFlood flood-opacity="0" result="BackgroundImageFix"/>
<feColorMatrix in="SourceAlpha" type="matrix" values="0 0 0 0 0 0 0 0 0 0 0 0 0 0 0 0 0 0 127 0" result="hardAlpha"/>
<feOffset dy="0.51643"/>
<feGaussianBlur stdDeviation="0.774644"/>
<feColorMatrix type="matrix" values="0 0 0 0 0 0 0 0 0 0 0 0 0 0 0 0 0 0 0.1 0"/>
<feBlend mode="normal" in2="BackgroundImageFix" result="effect1_dropShadow_1754_23"/>
<feColorMatrix in="SourceAlpha" type="matrix" values="0 0 0 0 0 0 0 0 0 0 0 0 0 0 0 0 0 0 127 0" result="hardAlpha"/>
<feOffset dy="2.58215"/>
<feGaussianBlur stdDeviation="1.29107"/>
<feColorMatrix type="matrix" values="0 0 0 0 0 0 0 0 0 0 0 0 0 0 0 0 0 0 0.09 0"/>
<feBlend mode="normal" in2="effect1_dropShadow_1754_23" result="effect2_dropShadow_1754_23"/>
<feColorMatrix in="SourceAlpha" type="matrix" values="0 0 0 0 0 0 0 0 0 0 0 0 0 0 0 0 0 0 127 0" result="hardAlpha"/>
<feOffset dy="5.68073"/>
<feGaussianBlur stdDeviation="1.54929"/>
<feColorMatrix type="matrix" values="0 0 0 0 0 0 0 0 0 0 0 0 0 0 0 0 0 0 0.05 0"/>
<feBlend mode="normal" in2="effect2_dropShadow_1754_23" result="effect3_dropShadow_1754_23"/>
<feColorMatrix in="SourceAlpha" type="matrix" values="0 0 0 0 0 0 0 0 0 0 0 0 0 0 0 0 0 0 127 0" result="hardAlpha"/>
<feOffset dy="9.81216"/>
<feGaussianBlur stdDeviation="2.06572"/>
<feColorMatrix type="matrix" values="0 0 0 0 0 0 0 0 0 0 0 0 0 0 0 0 0 0 0.01 0"/>
<feBlend mode="normal" in2="effect3_dropShadow_1754_23" result="effect4_dropShadow_1754_23"/>
<feBlend mode="normal" in="SourceGraphic" in2="effect4_dropShadow_1754_23" result="shape"/>
</filter>
<filter id="filter1_ddddd_1754_23" x="16.5742" y="22.1306" width="6.52826" height="11.9755" filterUnits="userSpaceOnUse" color-interpolation-filters="sRGB">
<feFlood flood-opacity="0" result="BackgroundImageFix"/>
<feColorMatrix in="SourceAlpha" type="matrix" values="0 0 0 0 0 0 0 0 0 0 0 0 0 0 0 0 0 0 127 0" result="hardAlpha"/>
<feOffset/>
<feGaussianBlur stdDeviation="0.258215"/>
<feColorMatrix type="matrix" values="0 0 0 0 0 0 0 0 0 0 0 0 0 0 0 0 0 0 0.3 0"/>
<feBlend mode="normal" in2="BackgroundImageFix" result="effect1_dropShadow_1754_23"/>
<feColorMatrix in="SourceAlpha" type="matrix" values="0 0 0 0 0 0 0 0 0 0 0 0 0 0 0 0 0 0 127 0" result="hardAlpha"/>
<feOffset dy="-0.51643"/>
<feGaussianBlur stdDeviation="0.258215"/>
<feColorMatrix type="matrix" values="0 0 0 0 0 0 0 0 0 0 0 0 0 0 0 0 0 0 0.26 0"/>
<feBlend mode="normal" in2="effect1_dropShadow_1754_23" result="effect2_dropShadow_1754_23"/>
<feColorMatrix in="SourceAlpha" type="matrix" values="0 0 0 0 0 0 0 0 0 0 0 0 0 0 0 0 0 0 127 0" result="hardAlpha"/>
<feOffset dy="-1.54929"/>
<feGaussianBlur stdDeviation="0.51643"/>
<feColorMatrix type="matrix" values="0 0 0 0 0 0 0 0 0 0 0 0 0 0 0 0 0 0 0.15 0"/>
<feBlend mode="normal" in2="effect2_dropShadow_1754_23" result="effect3_dropShadow_1754_23"/>
<feColorMatrix in="SourceAlpha" type="matrix" values="0 0 0 0 0 0 0 0 0 0 0 0 0 0 0 0 0 0 127 0" result="hardAlpha"/>
<feOffset dy="-3.09858"/>
<feGaussianBlur stdDeviation="0.51643"/>
<feColorMatrix type="matrix" values="0 0 0 0 0 0 0 0 0 0 0 0 0 0 0 0 0 0 0.04 0"/>
<feBlend mode="normal" in2="effect3_dropShadow_1754_23" result="effect4_dropShadow_1754_23"/>
<feColorMatrix in="SourceAlpha" type="matrix" values="0 0 0 0 0 0 0 0 0 0 0 0 0 0 0 0 0 0 127 0" result="hardAlpha"/>
<feOffset dy="-4.64787"/>
<feGaussianBlur stdDeviation="0.774644"/>
<feColorMatrix type="matrix" values="0 0 0 0 0 0 0 0 0 0 0 0 0 0 0 0 0 0 0.01 0"/>
<feBlend mode="normal" in2="effect4_dropShadow_1754_23" result="effect5_dropShadow_1754_23"/>
<feBlend mode="normal" in="SourceGraphic" in2="effect5_dropShadow_1754_23" result="shape"/>
</filter>
<filter id="filter2_ddddd_1754_23" x="23.1579" y="5.24881" width="11.8127" height="10.8461" filterUnits="userSpaceOnUse" color-interpolation-filters="sRGB">
<feFlood flood-opacity="0" result="BackgroundImageFix"/>
<feColorMatrix in="SourceAlpha" type="matrix" values="0 0 0 0 0 0 0 0 0 0 0 0 0 0 0 0 0 0 127 0" result="hardAlpha"/>
<feOffset/>
<feGaussianBlur stdDeviation="0.258215"/>
<feColorMatrix type="matrix" values="0 0 0 0 0 0 0 0 0 0 0 0 0 0 0 0 0 0 0.29 0"/>
<feBlend mode="normal" in2="BackgroundImageFix" result="effect1_dropShadow_1754_23"/>
<feColorMatrix in="SourceAlpha" type="matrix" values="0 0 0 0 0 0 0 0 0 0 0 0 0 0 0 0 0 0 127 0" result="hardAlpha"/>
<feOffset dx="1.03286" dy="0.51643"/>
<feGaussianBlur stdDeviation="0.51643"/>
<feColorMatrix type="matrix" values="0 0 0 0 0 0 0 0 0 0 0 0 0 0 0 0 0 0 0.26 0"/>
<feBlend mode="normal" in2="effect1_dropShadow_1754_23" result="effect2_dropShadow_1754_23"/>
<feColorMatrix in="SourceAlpha" type="matrix" values="0 0 0 0 0 0 0 0 0 0 0 0 0 0 0 0 0 0 127 0" result="hardAlpha"/>
<feOffset dx="2.06572" dy="1.03286"/>
<feGaussianBlur stdDeviation="0.774644"/>
<feColorMatrix type="matrix" values="0 0 0 0 0 0 0 0 0 0 0 0 0 0 0 0 0 0 0.15 0"/>
<feBlend mode="normal" in2="effect2_dropShadow_1754_23" result="effect3_dropShadow_1754_23"/>
<feColorMatrix in="SourceAlpha" type="matrix" values="0 0 0 0 0 0 0 0 0 0 0 0 0 0 0 0 0 0 127 0" result="hardAlpha"/>
<feOffset dx="3.61501" dy="2.06572"/>
<feGaussianBlur stdDeviation="0.774644"/>
<feColorMatrix type="matrix" values="0 0 0 0 0 0 0 0 0 0 0 0 0 0 0 0 0 0 0.04 0"/>
<feBlend mode="normal" in2="effect3_dropShadow_1754_23" result="effect4_dropShadow_1754_23"/>
<feColorMatrix in="SourceAlpha" type="matrix" values="0 0 0 0 0 0 0 0 0 0 0 0 0 0 0 0 0 0 127 0" result="hardAlpha"/>
<feOffset dx="5.68073" dy="3.09858"/>
<feGaussianBlur stdDeviation="1.03286"/>
<feColorMatrix type="matrix" values="0 0 0 0 0 0 0 0 0 0 0 0 0 0 0 0 0 0 0.01 0"/>
<feBlend mode="normal" in2="effect4_dropShadow_1754_23" result="effect5_dropShadow_1754_23"/>
<feBlend mode="normal" in="SourceGraphic" in2="effect5_dropShadow_1754_23" result="shape"/>
</filter>
<filter id="filter3_ddddd_1754_23" x="5.384" y="5.39731" width="11.0921" height="9.51626" filterUnits="userSpaceOnUse" color-interpolation-filters="sRGB">
<feFlood flood-opacity="0" result="BackgroundImageFix"/>
<feColorMatrix in="SourceAlpha" type="matrix" values="0 0 0 0 0 0 0 0 0 0 0 0 0 0 0 0 0 0 127 0" result="hardAlpha"/>
<feOffset/>
<feGaussianBlur stdDeviation="0.258215"/>
<feColorMatrix type="matrix" values="0 0 0 0 0 0 0 0 0 0 0 0 0 0 0 0 0 0 0.29 0"/>
<feBlend mode="normal" in2="BackgroundImageFix" result="effect1_dropShadow_1754_23"/>
<feColorMatrix in="SourceAlpha" type="matrix" values="0 0 0 0 0 0 0 0 0 0 0 0 0 0 0 0 0 0 127 0" result="hardAlpha"/>
<feOffset dx="-1.03286" dy="0.51643"/>
<feGaussianBlur stdDeviation="0.51643"/>
<feColorMatrix type="matrix" values="0 0 0 0 0 0 0 0 0 0 0 0 0 0 0 0 0 0 0.26 0"/>
<feBlend mode="normal" in2="effect1_dropShadow_1754_23" result="effect2_dropShadow_1754_23"/>
<feColorMatrix in="SourceAlpha" type="matrix" values="0 0 0 0 0 0 0 0 0 0 0 0 0 0 0 0 0 0 127 0" result="hardAlpha"/>
<feOffset dx="-2.06572" dy="1.03286"/>
<feGaussianBlur stdDeviation="0.774644"/>
<feColorMatrix type="matrix" values="0 0 0 0 0 0 0 0 0 0 0 0 0 0 0 0 0 0 0.15 0"/>
<feBlend mode="normal" in2="effect2_dropShadow_1754_23" result="effect3_dropShadow_1754_23"/>
<feColorMatrix in="SourceAlpha" type="matrix" values="0 0 0 0 0 0 0 0 0 0 0 0 0 0 0 0 0 0 127 0" result="hardAlpha"/>
<feOffset dx="-3.61501" dy="1.54929"/>
<feGaussianBlur stdDeviation="0.774644"/>
<feColorMatrix type="matrix" values="0 0 0 0 0 0 0 0 0 0 0 0 0 0 0 0 0 0 0.04 0"/>
<feBlend mode="normal" in2="effect3_dropShadow_1754_23" result="effect4_dropShadow_1754_23"/>
<feColorMatrix in="SourceAlpha" type="matrix" values="0 0 0 0 0 0 0 0 0 0 0 0 0 0 0 0 0 0 127 0" result="hardAlpha"/>
<feOffset dx="-5.68073" dy="2.58215"/>
<feGaussianBlur stdDeviation="0.774644"/>
<feColorMatrix type="matrix" values="0 0 0 0 0 0 0 0 0 0 0 0 0 0 0 0 0 0 0.01 0"/>
<feBlend mode="normal" in2="effect4_dropShadow_1754_23" result="effect5_dropShadow_1754_23"/>
<feBlend mode="normal" in="SourceGraphic" in2="effect5_dropShadow_1754_23" result="shape"/>
</filter>
<filter id="filter4_ddddd_1754_23" x="14.916" y="0.721113" width="9.84427" height="11.0956" filterUnits="userSpaceOnUse" color-interpolation-filters="sRGB">
<feFlood flood-opacity="0" result="BackgroundImageFix"/>
<feColorMatrix in="SourceAlpha" type="matrix" values="0 0 0 0 0 0 0 0 0 0 0 0 0 0 0 0 0 0 127 0" result="hardAlpha"/>
<feOffset/>
<feGaussianBlur stdDeviation="0.51643"/>
<feColorMatrix type="matrix" values="0 0 0 0 0 0 0 0 0 0 0 0 0 0 0 0 0 0 0.58 0"/>
<feBlend mode="normal" in2="BackgroundImageFix" result="effect1_dropShadow_1754_23"/>
<feColorMatrix in="SourceAlpha" type="matrix" values="0 0 0 0 0 0 0 0 0 0 0 0 0 0 0 0 0 0 127 0" result="hardAlpha"/>
<feOffset/>
<feGaussianBlur stdDeviation="1.03286"/>
<feColorMatrix type="matrix" values="0 0 0 0 0 0 0 0 0 0 0 0 0 0 0 0 0 0 0.5 0"/>
<feBlend mode="normal" in2="effect1_dropShadow_1754_23" result="effect2_dropShadow_1754_23"/>
<feColorMatrix in="SourceAlpha" type="matrix" values="0 0 0 0 0 0 0 0 0 0 0 0 0 0 0 0 0 0 127 0" result="hardAlpha"/>
<feOffset/>
<feGaussianBlur stdDeviation="1.54929"/>
<feColorMatrix type="matrix" values="0 0 0 0 0 0 0 0 0 0 0 0 0 0 0 0 0 0 0.3 0"/>
<feBlend mode="normal" in2="effect2_dropShadow_1754_23" result="effect3_dropShadow_1754_23"/>
<feColorMatrix in="SourceAlpha" type="matrix" values="0 0 0 0 0 0 0 0 0 0 0 0 0 0 0 0 0 0 127 0" result="hardAlpha"/>
<feOffset/>
<feGaussianBlur stdDeviation="1.8075"/>
<feColorMatrix type="matrix" values="0 0 0 0 0 0 0 0 0 0 0 0 0 0 0 0 0 0 0.09 0"/>
<feBlend mode="normal" in2="effect3_dropShadow_1754_23" result="effect4_dropShadow_1754_23"/>
<feColorMatrix in="SourceAlpha" type="matrix" values="0 0 0 0 0 0 0 0 0 0 0 0 0 0 0 0 0 0 127 0" result="hardAlpha"/>
<feOffset/>
<feGaussianBlur stdDeviation="1.8075"/>
<feColorMatrix type="matrix" values="0 0 0 0 0 0 0 0 0 0 0 0 0 0 0 0 0 0 0.01 0"/>
<feBlend mode="normal" in2="effect4_dropShadow_1754_23" result="effect5_dropShadow_1754_23"/>
<feBlend mode="normal" in="SourceGraphic" in2="effect5_dropShadow_1754_23" result="shape"/>
</filter>
<linearGradient id="paint0_linear_1754_23" x1="19.8384" y1="4.21417" x2="19.8384" y2="34" gradientUnits="userSpaceOnUse">
<stop offset="0.352288" stop-color="#74D6EF"/>
<stop offset="0.709394" stop-color="#01B7E6"/>
</linearGradient>
</defs>
</svg>
