<svg width="104" height="35" viewBox="0 0 104 35" fill="none" xmlns="http://www.w3.org/2000/svg">
<path d="M11.9053 5.39688L11.5815 9.68462C12.4745 9.28924 13.3572 8.87342 14.2298 8.43715V4.21417C13.4629 4.62659 12.6892 5.02196 11.9053 5.39688ZM28.9165 9.13928C26.7351 8.48487 24.581 7.70776 22.4746 6.82158C22.6485 8.18834 22.8462 9.68462 23.0336 11.0889C24.0902 11.4945 25.1604 11.8762 26.2375 12.2273C24.99 18.1238 21.9157 23.5635 17.5155 27.7081C16.9156 28.2739 16.2884 28.8158 15.6409 29.3339C14.9899 28.8158 14.3627 28.2739 13.7628 27.7047C9.36603 23.5567 6.28827 18.1169 5.0408 12.2068C6.11785 11.8523 7.18808 11.4706 8.24808 11.065C8.43895 9.66076 8.63323 8.16107 8.81047 6.79772C6.70068 7.68731 4.54659 8.46442 2.35841 9.12223L0.800781 9.58918L1.04618 11.2013C2.3959 19.9677 7.31419 27.991 14.5434 33.2058L15.6409 34L16.7383 33.2058C23.9641 27.991 28.8824 19.9779 30.2321 11.2184L30.4775 9.60622L28.9165 9.13928ZM19.373 5.42415C18.5891 5.04582 17.8154 4.65385 17.0485 4.24485V8.4576C17.9211 8.89387 18.8038 9.3097 19.6968 9.70507L19.373 5.42415Z" fill="#EAF4FE"/>
<path d="M11.9053 5.39688L11.5815 9.68462C12.4745 9.28924 13.3572 8.87342 14.2298 8.43715V4.21417C13.4629 4.62659 12.6892 5.02196 11.9053 5.39688ZM28.9165 9.13928C26.7351 8.48487 24.581 7.70776 22.4746 6.82158C22.6485 8.18834 22.8462 9.68462 23.0336 11.0889C24.0902 11.4945 25.1604 11.8762 26.2375 12.2273C24.99 18.1238 21.9157 23.5635 17.5155 27.7081C16.9156 28.2739 16.2884 28.8158 15.6409 29.3339C14.9899 28.8158 14.3627 28.2739 13.7628 27.7047C9.36603 23.5567 6.28827 18.1169 5.0408 12.2068C6.11785 11.8523 7.18808 11.4706 8.24808 11.065C8.43895 9.66076 8.63323 8.16107 8.81047 6.79772C6.70068 7.68731 4.54659 8.46442 2.35841 9.12223L0.800781 9.58918L1.04618 11.2013C2.3959 19.9677 7.31419 27.991 14.5434 33.2058L15.6409 34L16.7383 33.2058C23.9641 27.991 28.8824 19.9779 30.2321 11.2184L30.4775 9.60622L28.9165 9.13928ZM19.373 5.42415C18.5891 5.04582 17.8154 4.65385 17.0485 4.24485V8.4576C17.9211 8.89387 18.8038 9.3097 19.6968 9.70507L19.373 5.42415Z" fill="url(#paint0_linear_1754_23)"/>
<path d="M19.942 21.0992C17.5152 22.1456 17.5152 24.3508 17.5152 24.3508V27.7081C16.9154 28.2738 16.2882 28.8158 15.6406 29.3338C14.9896 28.8158 14.3625 28.2738 13.7626 27.7046V24.3508C13.7626 24.3508 13.7626 22.1456 11.3359 21.0992C8.90909 20.0528 7.08902 18.7815 7.69571 14.9198C7.8559 13.9075 8.05018 12.5374 8.24787 11.065C8.43874 9.6607 8.63301 8.16101 8.81025 6.79766C9.08633 4.62312 9.31128 2.78941 9.38286 2.20999C9.41012 1.95777 9.49533 1.71577 9.64189 1.51127C9.82595 1.25564 10.1463 1.00002 10.6712 1.00002C10.7292 1.00002 10.7871 1.00342 10.8416 1.01024C11.6256 1.09545 12.1743 1.84188 12.1164 2.63263L11.9051 5.39682L11.5813 9.68456L11.3222 13.0895C11.2813 13.6349 11.4722 14.187 11.8812 14.5517C12.1027 14.7494 12.3925 14.9028 12.7537 14.9028C13.04 14.9028 13.2786 14.8176 13.4763 14.7017C13.9603 14.412 14.2296 13.87 14.2296 13.3043V2.55764C14.2296 1.78735 14.8363 1.13294 15.6066 1.11931H15.6713C16.4416 1.13294 17.0483 1.78735 17.0483 2.55764V13.3043C17.0483 13.87 17.3141 14.412 17.7981 14.7017C17.9958 14.8176 18.2412 14.9028 18.5275 14.9028C18.8854 14.9028 19.1717 14.7494 19.3967 14.5517C19.8057 14.187 19.9965 13.6349 19.9522 13.0895L19.6966 9.70501L19.3728 5.42409L19.1615 2.63263C19.1001 1.84188 19.6489 1.09545 20.4362 1.01024C20.4942 1.00342 20.5487 1.00002 20.6066 1.00002C21.1349 1.00002 21.4485 1.25564 21.6326 1.51127C21.7825 1.71577 21.8643 1.95777 21.895 2.20999C21.9666 2.79282 22.1949 4.63675 22.4744 6.82152C22.6483 8.18828 22.8459 9.68456 23.0334 11.0888C23.2311 12.551 23.4254 13.9144 23.5822 14.9198C24.1888 18.7815 22.3688 20.0528 19.942 21.0992Z" fill="#EAF4FE"/>
<g filter="url(#filter0_ddddd_1754_23)">
<path d="M13.9238 31.8749V28.3277L15.6386 29.7975L17.3534 28.3277V31.8749L15.6386 33.5897L13.9238 31.8749Z" fill="#D9D9D9"/>
</g>
<g filter="url(#filter1_ddddd_1754_23)">
<path d="M23.0243 10.9307L22.3878 6.84241L19.4746 5.76524L19.9152 9.90248L23.0243 10.9307Z" fill="#D9D9D9"/>
</g>
<g filter="url(#filter2_ddddd_1754_23)">
<path d="M8.41418 10.7821L9.01407 6.92896L11.7598 5.91374L11.3445 9.81307L8.41418 10.7821Z" fill="#D9D9D9"/>
</g>
<g filter="url(#filter3_ddddd_1754_23)">
<rect x="14.332" y="4.33612" width="2.61435" height="3.86555" fill="#D9D9D9"/>
</g>
<path d="M8.24747 11.065C8.04978 12.5374 7.85551 13.9075 7.69531 14.9198H23.5818C23.425 13.9144 23.2307 12.551 23.033 11.0888C22.8455 9.68456 22.6479 8.18828 22.474 6.82152C22.1945 4.63675 21.9662 2.79282 21.8946 2.20999C21.8639 1.95777 21.7821 1.71577 21.6322 1.51127C21.4481 1.25564 21.1345 1.00002 20.6062 1.00002C20.5483 1.00002 20.4938 1.00342 20.4358 1.01024C19.6485 1.09545 19.0997 1.84188 19.1611 2.63263L19.3724 5.42409L19.6962 9.70501L19.9518 13.0895C19.9961 13.6349 19.8053 14.187 19.3963 14.5517C19.1713 14.7494 18.885 14.9028 18.5271 14.9028C18.2408 14.9028 17.9954 14.8176 17.7977 14.7017C17.3138 14.412 17.0479 13.87 17.0479 13.3043V2.55764C17.0479 1.78735 16.4412 1.13294 15.6709 1.11931H15.6062C14.8359 1.13294 14.2292 1.78735 14.2292 2.55764V13.3043C14.2292 13.87 13.9599 14.412 13.4759 14.7017C13.2782 14.8176 13.0396 14.9028 12.7533 14.9028C12.3921 14.9028 12.1023 14.7494 11.8808 14.5517C11.4718 14.187 11.2809 13.6349 11.3218 13.0895L11.5809 9.68456L11.9047 5.39682L12.116 2.63263C12.1739 1.84188 11.6252 1.09545 10.8412 1.01024C10.7867 1.00342 10.7288 1.00002 10.6708 1.00002C10.1459 1.00002 9.82555 1.25564 9.6415 1.51127C9.49494 1.71577 9.40973 1.95777 9.38246 2.20999C9.31088 2.78941 9.08593 4.62312 8.80985 6.79766C8.63262 8.16101 8.43834 9.6607 8.24747 11.065Z" fill="#74D6EF"/>
<path d="M8.24747 11.065C8.04978 12.5374 7.85551 13.9075 7.69531 14.9198H23.5818C23.425 13.9144 23.2307 12.551 23.033 11.0888C22.8455 9.68456 22.6479 8.18828 22.474 6.82152C22.1945 4.63675 21.9662 2.79282 21.8946 2.20999C21.8639 1.95777 21.7821 1.71577 21.6322 1.51127C21.4481 1.25564 21.1345 1.00002 20.6062 1.00002C20.5483 1.00002 20.4938 1.00342 20.4358 1.01024C19.6485 1.09545 19.0997 1.84188 19.1611 2.63263L19.3724 5.42409L19.6962 9.70501L19.9518 13.0895C19.9961 13.6349 19.8053 14.187 19.3963 14.5517C19.1713 14.7494 18.885 14.9028 18.5271 14.9028C18.2408 14.9028 17.9954 14.8176 17.7977 14.7017C17.3138 14.412 17.0479 13.87 17.0479 13.3043V2.55764C17.0479 1.78735 16.4412 1.13294 15.6709 1.11931H15.6062C14.8359 1.13294 14.2292 1.78735 14.2292 2.55764V13.3043C14.2292 13.87 13.9599 14.412 13.4759 14.7017C13.2782 14.8176 13.0396 14.9028 12.7533 14.9028C12.3921 14.9028 12.1023 14.7494 11.8808 14.5517C11.4718 14.187 11.2809 13.6349 11.3218 13.0895L11.5809 9.68456L11.9047 5.39682L12.116 2.63263C12.1739 1.84188 11.6252 1.09545 10.8412 1.01024C10.7867 1.00342 10.7288 1.00002 10.6708 1.00002C10.1459 1.00002 9.82555 1.25564 9.6415 1.51127C9.49494 1.71577 9.40973 1.95777 9.38246 2.20999C9.31088 2.78941 9.08593 4.62312 8.80985 6.79766C8.63262 8.16101 8.43834 9.6607 8.24747 11.065Z" fill="#EAF4FE"/>
<path d="M15.6405 29.334C16.2881 28.8159 19.6202 25.7188 20.2201 25.153V30.0637L15.6405 34.0001L10.2617 29.334L11.0834 25.153C11.6833 25.7222 14.9895 28.8159 15.6405 29.334Z" fill="#01B7E6"/>
<path d="M34.4456 14.9089V13.0226H43.3336V14.9089H39.9127V24.7081H37.8665V14.9089H34.4456ZM47.9738 16.7792V18.5856H47.2544C45.8477 18.5856 44.9685 19.3369 44.9685 20.8715V24.7081H43.0182V16.8272H44.8566L44.9685 17.9781C45.3042 17.1948 46.0555 16.6673 47.1105 16.6673C47.3823 16.6673 47.6541 16.6993 47.9738 16.7792ZM54.0096 16.8112H55.9598V24.7081H54.1534L54.0096 23.653C53.53 24.4043 52.5069 24.9159 51.4519 24.9159C49.6295 24.9159 48.5585 23.685 48.5585 21.7507V16.8112H50.5087V21.0634C50.5087 22.566 51.1002 23.1735 52.1872 23.1735C53.4181 23.1735 54.0096 22.4541 54.0096 20.9515V16.8112ZM56.5711 22.3102H58.4255C58.4415 22.9976 58.953 23.4292 59.8482 23.4292C60.7594 23.4292 61.2549 23.0616 61.2549 22.4861C61.2549 22.0864 61.0471 21.7987 60.3437 21.6388L58.921 21.3031C57.4983 20.9834 56.8109 20.312 56.8109 19.0492C56.8109 17.4986 58.1217 16.5714 59.9441 16.5714C61.7185 16.5714 62.9174 17.5945 62.9334 19.1291H61.0791C61.0631 18.4577 60.6155 18.0261 59.8642 18.0261C59.0969 18.0261 58.6493 18.3778 58.6493 18.9692C58.6493 19.4168 59.001 19.7046 59.6724 19.8644L61.0951 20.2001C62.4219 20.5039 63.0933 21.1113 63.0933 22.3262C63.0933 23.9248 61.7345 24.9159 59.7842 24.9159C57.818 24.9159 56.5711 23.8608 56.5711 22.3102ZM66.6243 24.7081H64.6741V18.4417H63.1555V16.8112H64.6741V14.3494H66.6243V16.8112H68.159V18.4417H66.6243V24.7081ZM68.0446 28.3688V26.7382H69.2115C69.9788 26.7382 70.4584 26.5624 70.7941 25.6352L71.0179 25.0438L67.8367 16.8112H69.8989L71.9291 22.566L74.0711 16.8112H76.0853L72.2168 26.4665C71.6253 27.9372 70.7941 28.5446 69.4992 28.5446C68.9557 28.5446 68.4762 28.4807 68.0446 28.3688ZM76.8414 24.7081V13.0226H81.4932C83.7951 13.0226 85.2018 14.2215 85.2018 16.1718C85.2018 17.4666 84.6264 18.3938 83.5234 18.8573C84.7542 19.257 85.3777 20.1841 85.3777 21.5429C85.3777 23.5411 83.9869 24.7081 81.5731 24.7081H76.8414ZM81.3173 14.829H78.8875V18.0101H81.3653C82.4843 18.0101 83.1077 17.4186 83.1077 16.3796C83.1077 15.3725 82.4683 14.829 81.3173 14.829ZM81.4932 19.7365H78.8875V22.9017H81.4932C82.6441 22.9017 83.2836 22.3422 83.2836 21.2872C83.2836 20.296 82.6282 19.7365 81.4932 19.7365ZM87.3018 15.2286C86.6304 15.2286 86.1029 14.7011 86.1029 14.0457C86.1029 13.3903 86.6304 12.8787 87.3018 12.8787C87.9413 12.8787 88.4688 13.3903 88.4688 14.0457C88.4688 14.7011 87.9413 15.2286 87.3018 15.2286ZM86.3267 24.7081V16.8112H88.2769V24.7081H86.3267ZM92.338 24.7081H90.3878V18.4417H88.8692V16.8112H90.3878V14.3494H92.338V16.8112H93.8727V18.4417H92.338V24.7081ZM97.9004 24.9159C95.5505 24.9159 93.904 23.2054 93.904 20.7596C93.904 18.2819 95.5185 16.5714 97.8365 16.5714C100.202 16.5714 101.705 18.154 101.705 20.6158V21.2072L95.7583 21.2232C95.9022 22.614 96.6375 23.3173 97.9324 23.3173C99.0034 23.3173 99.7068 22.9017 99.9306 22.1504H101.737C101.401 23.8768 99.9625 24.9159 97.9004 24.9159ZM97.8524 18.17C96.7015 18.17 95.9981 18.7934 95.8063 19.9763H99.7707C99.7707 18.8893 99.0194 18.17 97.8524 18.17Z" fill="#EAF4FE"/>
<defs>
<filter id="filter0_ddddd_1754_23" x="12.3745" y="22.1306" width="6.52826" height="11.9755" filterUnits="userSpaceOnUse" color-interpolation-filters="sRGB">
<feFlood flood-opacity="0" result="BackgroundImageFix"/>
<feColorMatrix in="SourceAlpha" type="matrix" values="0 0 0 0 0 0 0 0 0 0 0 0 0 0 0 0 0 0 127 0" result="hardAlpha"/>
<feOffset/>
<feGaussianBlur stdDeviation="0.258215"/>
<feColorMatrix type="matrix" values="0 0 0 0 0 0 0 0 0 0 0 0 0 0 0 0 0 0 0.3 0"/>
<feBlend mode="normal" in2="BackgroundImageFix" result="effect1_dropShadow_1754_23"/>
<feColorMatrix in="SourceAlpha" type="matrix" values="0 0 0 0 0 0 0 0 0 0 0 0 0 0 0 0 0 0 127 0" result="hardAlpha"/>
<feOffset dy="-0.51643"/>
<feGaussianBlur stdDeviation="0.258215"/>
<feColorMatrix type="matrix" values="0 0 0 0 0 0 0 0 0 0 0 0 0 0 0 0 0 0 0.26 0"/>
<feBlend mode="normal" in2="effect1_dropShadow_1754_23" result="effect2_dropShadow_1754_23"/>
<feColorMatrix in="SourceAlpha" type="matrix" values="0 0 0 0 0 0 0 0 0 0 0 0 0 0 0 0 0 0 127 0" result="hardAlpha"/>
<feOffset dy="-1.54929"/>
<feGaussianBlur stdDeviation="0.51643"/>
<feColorMatrix type="matrix" values="0 0 0 0 0 0 0 0 0 0 0 0 0 0 0 0 0 0 0.15 0"/>
<feBlend mode="normal" in2="effect2_dropShadow_1754_23" result="effect3_dropShadow_1754_23"/>
<feColorMatrix in="SourceAlpha" type="matrix" values="0 0 0 0 0 0 0 0 0 0 0 0 0 0 0 0 0 0 127 0" result="hardAlpha"/>
<feOffset dy="-3.09858"/>
<feGaussianBlur stdDeviation="0.51643"/>
<feColorMatrix type="matrix" values="0 0 0 0 0 0 0 0 0 0 0 0 0 0 0 0 0 0 0.04 0"/>
<feBlend mode="normal" in2="effect3_dropShadow_1754_23" result="effect4_dropShadow_1754_23"/>
<feColorMatrix in="SourceAlpha" type="matrix" values="0 0 0 0 0 0 0 0 0 0 0 0 0 0 0 0 0 0 127 0" result="hardAlpha"/>
<feOffset dy="-4.64787"/>
<feGaussianBlur stdDeviation="0.774644"/>
<feColorMatrix type="matrix" values="0 0 0 0 0 0 0 0 0 0 0 0 0 0 0 0 0 0 0.01 0"/>
<feBlend mode="normal" in2="effect4_dropShadow_1754_23" result="effect5_dropShadow_1754_23"/>
<feBlend mode="normal" in="SourceGraphic" in2="effect5_dropShadow_1754_23" result="shape"/>
</filter>
<filter id="filter1_ddddd_1754_23" x="18.9582" y="5.24881" width="11.8117" height="10.8461" filterUnits="userSpaceOnUse" color-interpolation-filters="sRGB">
<feFlood flood-opacity="0" result="BackgroundImageFix"/>
<feColorMatrix in="SourceAlpha" type="matrix" values="0 0 0 0 0 0 0 0 0 0 0 0 0 0 0 0 0 0 127 0" result="hardAlpha"/>
<feOffset/>
<feGaussianBlur stdDeviation="0.258215"/>
<feColorMatrix type="matrix" values="0 0 0 0 0 0 0 0 0 0 0 0 0 0 0 0 0 0 0.29 0"/>
<feBlend mode="normal" in2="BackgroundImageFix" result="effect1_dropShadow_1754_23"/>
<feColorMatrix in="SourceAlpha" type="matrix" values="0 0 0 0 0 0 0 0 0 0 0 0 0 0 0 0 0 0 127 0" result="hardAlpha"/>
<feOffset dx="1.03286" dy="0.51643"/>
<feGaussianBlur stdDeviation="0.51643"/>
<feColorMatrix type="matrix" values="0 0 0 0 0 0 0 0 0 0 0 0 0 0 0 0 0 0 0.26 0"/>
<feBlend mode="normal" in2="effect1_dropShadow_1754_23" result="effect2_dropShadow_1754_23"/>
<feColorMatrix in="SourceAlpha" type="matrix" values="0 0 0 0 0 0 0 0 0 0 0 0 0 0 0 0 0 0 127 0" result="hardAlpha"/>
<feOffset dx="2.06572" dy="1.03286"/>
<feGaussianBlur stdDeviation="0.774644"/>
<feColorMatrix type="matrix" values="0 0 0 0 0 0 0 0 0 0 0 0 0 0 0 0 0 0 0.15 0"/>
<feBlend mode="normal" in2="effect2_dropShadow_1754_23" result="effect3_dropShadow_1754_23"/>
<feColorMatrix in="SourceAlpha" type="matrix" values="0 0 0 0 0 0 0 0 0 0 0 0 0 0 0 0 0 0 127 0" result="hardAlpha"/>
<feOffset dx="3.61501" dy="2.06572"/>
<feGaussianBlur stdDeviation="0.774644"/>
<feColorMatrix type="matrix" values="0 0 0 0 0 0 0 0 0 0 0 0 0 0 0 0 0 0 0.04 0"/>
<feBlend mode="normal" in2="effect3_dropShadow_1754_23" result="effect4_dropShadow_1754_23"/>
<feColorMatrix in="SourceAlpha" type="matrix" values="0 0 0 0 0 0 0 0 0 0 0 0 0 0 0 0 0 0 127 0" result="hardAlpha"/>
<feOffset dx="5.68073" dy="3.09858"/>
<feGaussianBlur stdDeviation="1.03286"/>
<feColorMatrix type="matrix" values="0 0 0 0 0 0 0 0 0 0 0 0 0 0 0 0 0 0 0.01 0"/>
<feBlend mode="normal" in2="effect4_dropShadow_1754_23" result="effect5_dropShadow_1754_23"/>
<feBlend mode="normal" in="SourceGraphic" in2="effect5_dropShadow_1754_23" result="shape"/>
</filter>
<filter id="filter2_ddddd_1754_23" x="1.18405" y="5.39731" width="11.0921" height="9.51626" filterUnits="userSpaceOnUse" color-interpolation-filters="sRGB">
<feFlood flood-opacity="0" result="BackgroundImageFix"/>
<feColorMatrix in="SourceAlpha" type="matrix" values="0 0 0 0 0 0 0 0 0 0 0 0 0 0 0 0 0 0 127 0" result="hardAlpha"/>
<feOffset/>
<feGaussianBlur stdDeviation="0.258215"/>
<feColorMatrix type="matrix" values="0 0 0 0 0 0 0 0 0 0 0 0 0 0 0 0 0 0 0.29 0"/>
<feBlend mode="normal" in2="BackgroundImageFix" result="effect1_dropShadow_1754_23"/>
<feColorMatrix in="SourceAlpha" type="matrix" values="0 0 0 0 0 0 0 0 0 0 0 0 0 0 0 0 0 0 127 0" result="hardAlpha"/>
<feOffset dx="-1.03286" dy="0.51643"/>
<feGaussianBlur stdDeviation="0.51643"/>
<feColorMatrix type="matrix" values="0 0 0 0 0 0 0 0 0 0 0 0 0 0 0 0 0 0 0.26 0"/>
<feBlend mode="normal" in2="effect1_dropShadow_1754_23" result="effect2_dropShadow_1754_23"/>
<feColorMatrix in="SourceAlpha" type="matrix" values="0 0 0 0 0 0 0 0 0 0 0 0 0 0 0 0 0 0 127 0" result="hardAlpha"/>
<feOffset dx="-2.06572" dy="1.03286"/>
<feGaussianBlur stdDeviation="0.774644"/>
<feColorMatrix type="matrix" values="0 0 0 0 0 0 0 0 0 0 0 0 0 0 0 0 0 0 0.15 0"/>
<feBlend mode="normal" in2="effect2_dropShadow_1754_23" result="effect3_dropShadow_1754_23"/>
<feColorMatrix in="SourceAlpha" type="matrix" values="0 0 0 0 0 0 0 0 0 0 0 0 0 0 0 0 0 0 127 0" result="hardAlpha"/>
<feOffset dx="-3.61501" dy="1.54929"/>
<feGaussianBlur stdDeviation="0.774644"/>
<feColorMatrix type="matrix" values="0 0 0 0 0 0 0 0 0 0 0 0 0 0 0 0 0 0 0.04 0"/>
<feBlend mode="normal" in2="effect3_dropShadow_1754_23" result="effect4_dropShadow_1754_23"/>
<feColorMatrix in="SourceAlpha" type="matrix" values="0 0 0 0 0 0 0 0 0 0 0 0 0 0 0 0 0 0 127 0" result="hardAlpha"/>
<feOffset dx="-5.68073" dy="2.58215"/>
<feGaussianBlur stdDeviation="0.774644"/>
<feColorMatrix type="matrix" values="0 0 0 0 0 0 0 0 0 0 0 0 0 0 0 0 0 0 0.01 0"/>
<feBlend mode="normal" in2="effect4_dropShadow_1754_23" result="effect5_dropShadow_1754_23"/>
<feBlend mode="normal" in="SourceGraphic" in2="effect5_dropShadow_1754_23" result="shape"/>
</filter>
<filter id="filter3_ddddd_1754_23" x="10.717" y="0.721113" width="9.84525" height="11.0956" filterUnits="userSpaceOnUse" color-interpolation-filters="sRGB">
<feFlood flood-opacity="0" result="BackgroundImageFix"/>
<feColorMatrix in="SourceAlpha" type="matrix" values="0 0 0 0 0 0 0 0 0 0 0 0 0 0 0 0 0 0 127 0" result="hardAlpha"/>
<feOffset/>
<feGaussianBlur stdDeviation="0.51643"/>
<feColorMatrix type="matrix" values="0 0 0 0 0 0 0 0 0 0 0 0 0 0 0 0 0 0 0.58 0"/>
<feBlend mode="normal" in2="BackgroundImageFix" result="effect1_dropShadow_1754_23"/>
<feColorMatrix in="SourceAlpha" type="matrix" values="0 0 0 0 0 0 0 0 0 0 0 0 0 0 0 0 0 0 127 0" result="hardAlpha"/>
<feOffset/>
<feGaussianBlur stdDeviation="1.03286"/>
<feColorMatrix type="matrix" values="0 0 0 0 0 0 0 0 0 0 0 0 0 0 0 0 0 0 0.5 0"/>
<feBlend mode="normal" in2="effect1_dropShadow_1754_23" result="effect2_dropShadow_1754_23"/>
<feColorMatrix in="SourceAlpha" type="matrix" values="0 0 0 0 0 0 0 0 0 0 0 0 0 0 0 0 0 0 127 0" result="hardAlpha"/>
<feOffset/>
<feGaussianBlur stdDeviation="1.54929"/>
<feColorMatrix type="matrix" values="0 0 0 0 0 0 0 0 0 0 0 0 0 0 0 0 0 0 0.3 0"/>
<feBlend mode="normal" in2="effect2_dropShadow_1754_23" result="effect3_dropShadow_1754_23"/>
<feColorMatrix in="SourceAlpha" type="matrix" values="0 0 0 0 0 0 0 0 0 0 0 0 0 0 0 0 0 0 127 0" result="hardAlpha"/>
<feOffset/>
<feGaussianBlur stdDeviation="1.8075"/>
<feColorMatrix type="matrix" values="0 0 0 0 0 0 0 0 0 0 0 0 0 0 0 0 0 0 0.09 0"/>
<feBlend mode="normal" in2="effect3_dropShadow_1754_23" result="effect4_dropShadow_1754_23"/>
<feColorMatrix in="SourceAlpha" type="matrix" values="0 0 0 0 0 0 0 0 0 0 0 0 0 0 0 0 0 0 127 0" result="hardAlpha"/>
<feOffset/>
<feGaussianBlur stdDeviation="1.8075"/>
<feColorMatrix type="matrix" values="0 0 0 0 0 0 0 0 0 0 0 0 0 0 0 0 0 0 0.01 0"/>
<feBlend mode="normal" in2="effect4_dropShadow_1754_23" result="effect5_dropShadow_1754_23"/>
<feBlend mode="normal" in="SourceGraphic" in2="effect5_dropShadow_1754_23" result="shape"/>
</filter>
<linearGradient id="paint0_linear_1754_23" x1="15.6391" y1="4.21417" x2="15.6391" y2="34" gradientUnits="userSpaceOnUse">
<stop offset="0.352288" stop-color="#74D6EF"/>
<stop offset="0.709394" stop-color="#01B7E6"/>
</linearGradient>
</defs>
</svg>
