<svg width="40" height="40" viewBox="0 0 40 40" fill="none" xmlns="http://www.w3.org/2000/svg">
<path d="M35.0974 13.4038C35.8385 11.3318 35.6315 9.03298 34.5039 7.14499C33.0483 4.70624 30.1354 3.54087 27.3573 3.98047C26.9011 4.05291 26.4601 4.1942 26.0205 4.32649C24.8264 1.60337 21.7856 -0.178887 18.8105 0.198173C16.4195 0.500991 14.2232 2.12802 13.25 4.32379C12.5256 4.09701 11.8601 3.95257 11.097 3.92288C10.8882 3.84729 10.5449 3.84684 10.333 3.92288C6.73109 4.07136 3.91079 6.82147 3.7713 10.4395C3.69616 10.6807 3.69571 11.0488 3.7713 11.2935C3.8001 12.0405 3.94768 12.6915 4.17266 13.4025C2.27071 14.238 0.78677 16.0266 0.233329 18.0253C-0.674675 21.3045 1.15708 24.7755 4.17266 26.1739C3.42484 28.443 3.68266 30.8597 5.03792 32.8359C6.41927 34.8499 9.07084 35.8956 11.4785 35.6526C12.0824 35.5914 12.6741 35.4222 13.2522 35.249C14.5625 38.1683 17.8566 39.9533 21.0301 39.2716C23.1993 38.8054 25.1287 37.2841 26.0201 35.249C28.9808 36.4148 32.4031 35.4263 34.2529 32.8539C35.6576 30.9011 35.964 28.4219 35.0974 26.1717C37.1312 25.2781 38.6426 23.3451 39.12 21.1817C39.8152 18.032 37.9983 14.6952 35.0974 13.4038ZM16.8276 27.832L9.65983 20.6643L12.378 17.9461L16.7362 22.2598L25.8442 12.2884C25.8923 12.2614 25.9589 12.2884 25.9985 12.3248L28.7144 14.8666L16.8276 27.832Z" fill="#C3C3C3"/>
<path d="M35.0974 13.4038C35.8385 11.3318 35.6315 9.03298 34.5039 7.14499C33.0483 4.70624 30.1354 3.54087 27.3573 3.98047C26.9011 4.05291 26.4601 4.1942 26.0205 4.32649C24.8264 1.60337 21.7856 -0.178887 18.8105 0.198173C16.4195 0.500991 14.2232 2.12802 13.25 4.32379C12.5256 4.09701 11.8601 3.95257 11.097 3.92288C10.8882 3.84729 10.5449 3.84684 10.333 3.92288C6.73109 4.07136 3.91079 6.82147 3.7713 10.4395C3.69616 10.6807 3.69571 11.0488 3.7713 11.2935C3.8001 12.0405 3.94768 12.6915 4.17266 13.4025C2.27071 14.238 0.78677 16.0266 0.233329 18.0253C-0.674675 21.3045 1.15708 24.7755 4.17266 26.1739C3.42484 28.443 3.68266 30.8597 5.03792 32.8359C6.41927 34.8499 9.07084 35.8956 11.4785 35.6526C12.0824 35.5914 12.6741 35.4222 13.2522 35.249C14.5625 38.1683 17.8566 39.9533 21.0301 39.2716C23.1993 38.8054 25.1287 37.2841 26.0201 35.249C28.9808 36.4148 32.4031 35.4263 34.2529 32.8539C35.6576 30.9011 35.964 28.4219 35.0974 26.1717C37.1312 25.2781 38.6426 23.3451 39.12 21.1817C39.8152 18.032 37.9983 14.6952 35.0974 13.4038ZM16.8276 27.832L9.65983 20.6643L12.378 17.9461L16.7362 22.2598L25.8442 12.2884C25.8923 12.2614 25.9589 12.2884 25.9985 12.3248L28.7144 14.8666L16.8276 27.832Z" fill="url(#paint0_linear_1877_14)"/>
<path d="M35.0974 13.4038C35.8385 11.3318 35.6315 9.03298 34.5039 7.14499C33.0483 4.70624 30.1354 3.54087 27.3573 3.98047C26.9011 4.05291 26.4601 4.1942 26.0205 4.32649C24.8264 1.60337 21.7856 -0.178887 18.8105 0.198173C16.4195 0.500991 14.2232 2.12802 13.25 4.32379C12.5256 4.09701 11.8601 3.95257 11.097 3.92288C10.8446 3.87923 10.5854 3.87923 10.333 3.92288C6.73109 4.07136 3.91079 6.82147 3.7713 10.4395C3.72766 10.7221 3.72766 11.0105 3.7713 11.2935C3.8001 12.0405 3.94768 12.6915 4.17266 13.4025C2.27071 14.238 0.78677 16.0266 0.233329 18.0253C-0.674675 21.3045 1.15708 24.7755 4.17266 26.1739C3.42484 28.443 3.68266 30.8597 5.03792 32.8359C6.41927 34.8499 9.07084 35.8956 11.4785 35.6526C12.0824 35.5914 12.6741 35.4222 13.2522 35.249C14.5625 38.1683 17.8566 39.9533 21.0301 39.2716C23.1993 38.8054 25.1287 37.2841 26.0201 35.249C28.9808 36.4148 32.4031 35.4263 34.2529 32.8539C35.6576 30.9011 35.964 28.4219 35.0974 26.1717C37.1312 25.2781 38.6426 23.3451 39.12 21.1817C39.8152 18.032 37.9983 14.6952 35.0974 13.4038ZM16.8276 27.832L9.65983 20.6643L12.378 17.9461L16.7362 22.2598L25.8442 12.2884C25.8923 12.2614 25.9589 12.2884 25.9985 12.3248L28.7144 14.8666L16.8276 27.832Z" fill="#C3C3C3"/>
<path d="M35.0974 13.4038C35.8385 11.3318 35.6315 9.03298 34.5039 7.14499C33.0483 4.70624 30.1354 3.54087 27.3573 3.98047C26.9011 4.05291 26.4601 4.1942 26.0205 4.32649C24.8264 1.60337 21.7856 -0.178887 18.8105 0.198173C16.4195 0.500991 14.2232 2.12802 13.25 4.32379C12.5256 4.09701 11.8601 3.95257 11.097 3.92288C10.8446 3.87923 10.5854 3.87923 10.333 3.92288C6.73109 4.07136 3.91079 6.82147 3.7713 10.4395C3.72766 10.7221 3.72766 11.0105 3.7713 11.2935C3.8001 12.0405 3.94768 12.6915 4.17266 13.4025C2.27071 14.238 0.78677 16.0266 0.233329 18.0253C-0.674675 21.3045 1.15708 24.7755 4.17266 26.1739C3.42484 28.443 3.68266 30.8597 5.03792 32.8359C6.41927 34.8499 9.07084 35.8956 11.4785 35.6526C12.0824 35.5914 12.6741 35.4222 13.2522 35.249C14.5625 38.1683 17.8566 39.9533 21.0301 39.2716C23.1993 38.8054 25.1287 37.2841 26.0201 35.249C28.9808 36.4148 32.4031 35.4263 34.2529 32.8539C35.6576 30.9011 35.964 28.4219 35.0974 26.1717C37.1312 25.2781 38.6426 23.3451 39.12 21.1817C39.8152 18.032 37.9983 14.6952 35.0974 13.4038ZM16.8276 27.832L9.65983 20.6643L12.378 17.9461L16.7362 22.2598L25.8442 12.2884C25.8923 12.2614 25.9589 12.2884 25.9985 12.3248L28.7144 14.8666L16.8276 27.832Z" fill="url(#paint1_linear_1877_14)"/>
<path d="M3.7713 10.4395C3.69616 10.6807 3.69571 11.0488 3.7713 11.2935C3.7605 11.02 3.7605 10.7131 3.7713 10.4395Z" fill="#C3C3C3"/>
<path d="M3.7713 10.4395C3.69616 10.6807 3.69571 11.0488 3.7713 11.2935C3.7605 11.02 3.7605 10.7131 3.7713 10.4395Z" fill="url(#paint2_linear_1877_14)"/>
<path d="M11.097 3.92288C10.8527 3.91298 10.5773 3.91253 10.333 3.92288C10.5449 3.84684 10.8882 3.84729 11.097 3.92288Z" fill="#C3C3C3"/>
<path d="M11.097 3.92288C10.8527 3.91298 10.5773 3.91253 10.333 3.92288C10.5449 3.84684 10.8882 3.84729 11.097 3.92288Z" fill="url(#paint3_linear_1877_14)"/>
<defs>
<linearGradient id="paint0_linear_1877_14" x1="31.5777" y1="0.147949" x2="31.5777" y2="39.4166" gradientUnits="userSpaceOnUse">
<stop offset="0.352288" stop-color="#74D6EF"/>
<stop offset="0.709394" stop-color="#01B7E6"/>
</linearGradient>
<linearGradient id="paint1_linear_1877_14" x1="31.5777" y1="0.147949" x2="31.5777" y2="39.4166" gradientUnits="userSpaceOnUse">
<stop offset="0.352288" stop-color="#74D6EF"/>
<stop offset="0.709394" stop-color="#01B7E6"/>
</linearGradient>
<linearGradient id="paint2_linear_1877_14" x1="31.5777" y1="0.147949" x2="31.5777" y2="39.4166" gradientUnits="userSpaceOnUse">
<stop offset="0.352288" stop-color="#74D6EF"/>
<stop offset="0.709394" stop-color="#01B7E6"/>
</linearGradient>
<linearGradient id="paint3_linear_1877_14" x1="31.5777" y1="0.147949" x2="31.5777" y2="39.4166" gradientUnits="userSpaceOnUse">
<stop offset="0.352288" stop-color="#74D6EF"/>
<stop offset="0.709394" stop-color="#01B7E6"/>
</linearGradient>
</defs>
</svg>
