<svg width="115" height="115" viewBox="0 0 115 115" fill="none" xmlns="http://www.w3.org/2000/svg">
<path d="M99.1843 93.0316C98.3531 95.7936 95.0758 98.3513 92.1785 98.3513H55.0832V104.749H92.651C93.4157 104.749 95.0829 106.2 95.4748 106.901C97.6074 110.696 95.052 114.049 91.0029 114.241L8.77357 114.203C4.40859 113.766 2.53483 108.233 6.27285 105.595C6.46521 105.457 7.71201 104.749 7.79751 104.749H45.2466L45.6028 104.395V98.3513H8.27248C4.56295 98.3513 1.36165 94.6323 1.04579 91.1175C0.425958 84.1877 1.48039 76.3649 1.06954 69.3401C1.68463 65.3479 4.80044 62.8615 8.73795 62.5504L55.6508 62.586C59.8258 63.0942 61.7946 68.3616 58.2822 71.0927C58.0779 71.2495 56.7195 72.0403 56.6245 72.0403H10.5238V88.8685L90.1646 88.5146V78.0843C90.1646 77.4074 91.7296 75.7261 92.4064 75.3508C95.7384 73.5032 99.2745 75.6311 99.6426 79.2717C99.9229 82.0717 99.9347 90.5285 99.1843 93.0316Z" fill="black"/>
<path d="M99.1843 93.0316C98.3531 95.7936 95.0758 98.3513 92.1785 98.3513H55.0832V104.749H92.651C93.4157 104.749 95.0829 106.2 95.4748 106.901C97.6074 110.696 95.052 114.049 91.0029 114.241L8.77357 114.203C4.40859 113.766 2.53483 108.233 6.27285 105.595C6.46521 105.457 7.71201 104.749 7.79751 104.749H45.2466L45.6028 104.395V98.3513H8.27248C4.56295 98.3513 1.36165 94.6323 1.04579 91.1175C0.425958 84.1877 1.48039 76.3649 1.06954 69.3401C1.68463 65.3479 4.80044 62.8615 8.73795 62.5504L55.6508 62.586C59.8258 63.0942 61.7946 68.3616 58.2822 71.0927C58.0779 71.2495 56.7195 72.0403 56.6245 72.0403H10.5238V88.8685L90.1646 88.5146V78.0843C90.1646 77.4074 91.7296 75.7261 92.4064 75.3508C95.7384 73.5032 99.2745 75.6311 99.6426 79.2717C99.9229 82.0717 99.9347 90.5285 99.1843 93.0316Z" fill="url(#paint0_linear_1805_340)"/>
<path d="M114.823 15.7372C114.098 10.3416 109.201 11.6216 105.278 11.0611C100.476 10.3772 95.6505 8.39181 91.6061 5.77234C89.2716 4.26194 85.9658 0.690155 83.2371 0.989386C81.0903 1.2245 78.4375 3.98883 76.5875 5.25225C71.3866 8.80266 65.9886 10.6978 59.7047 11.3604C58.5671 11.4815 57.4272 11.2298 56.2564 11.4672C54.1784 11.8876 52.4851 14.1081 52.4685 16.2146C53.5396 32.9906 47.9872 52.4406 63.0319 64.4502C68.38 68.7202 75.2837 71.5985 80.9976 75.4007C83.5031 76.4599 84.795 75.8139 87.0036 74.6882C91.2499 72.5271 96.3986 69.5704 100.429 67.0175C120.035 54.597 113.811 35.6053 114.823 15.7372ZM94.976 59.1947C91.2475 61.5126 87.2601 63.5146 83.4081 65.6234C79.2877 63.2391 74.5119 60.9877 70.6029 58.2994C66.0954 55.2002 63.0865 50.5478 62.2268 45.1071C61.6426 36.9851 62.0938 28.7728 61.9703 20.6176C69.8572 19.7507 77.3689 16.6207 83.6409 11.833C90.0577 16.6302 97.3058 19.6391 105.3 20.6413L105.304 44.1619C104.288 51.2009 100.835 55.5493 94.976 59.1947Z" fill="black"/>
<path d="M114.823 15.7372C114.098 10.3416 109.201 11.6216 105.278 11.0611C100.476 10.3772 95.6505 8.39181 91.6061 5.77234C89.2716 4.26194 85.9658 0.690155 83.2371 0.989386C81.0903 1.2245 78.4375 3.98883 76.5875 5.25225C71.3866 8.80266 65.9886 10.6978 59.7047 11.3604C58.5671 11.4815 57.4272 11.2298 56.2564 11.4672C54.1784 11.8876 52.4851 14.1081 52.4685 16.2146C53.5396 32.9906 47.9872 52.4406 63.0319 64.4502C68.38 68.7202 75.2837 71.5985 80.9976 75.4007C83.5031 76.4599 84.795 75.8139 87.0036 74.6882C91.2499 72.5271 96.3986 69.5704 100.429 67.0175C120.035 54.597 113.811 35.6053 114.823 15.7372ZM94.976 59.1947C91.2475 61.5126 87.2601 63.5146 83.4081 65.6234C79.2877 63.2391 74.5119 60.9877 70.6029 58.2994C66.0954 55.2002 63.0865 50.5478 62.2268 45.1071C61.6426 36.9851 62.0938 28.7728 61.9703 20.6176C69.8572 19.7507 77.3689 16.6207 83.6409 11.833C90.0577 16.6302 97.3058 19.6391 105.3 20.6413L105.304 44.1619C104.288 51.2009 100.835 55.5493 94.976 59.1947Z" fill="url(#paint1_linear_1805_340)"/>
<path d="M47.5621 59.4227L8.50046 59.4868C4.32784 59.1591 1.39727 56.4779 1.03392 52.2577C0.437832 45.316 1.47802 37.5028 1.06954 30.4685C1.50414 27.621 3.33278 25.2818 6.02586 24.2867C18.9261 23.4508 32.0376 24.1608 45.0115 23.9234C50.9249 25.3293 49.8538 33.1758 43.8217 33.4014C33.2512 33.133 22.6166 33.7719 12.0532 33.418C11.5237 33.399 11.0487 33.1758 10.5238 33.1687V49.9969H47.8542C48.4004 49.9969 50.0485 51.1796 50.4451 51.6759C52.8414 54.6753 51.1766 58.6437 47.5621 59.4227Z" fill="black"/>
<path d="M47.5621 59.4227L8.50046 59.4868C4.32784 59.1591 1.39727 56.4779 1.03392 52.2577C0.437832 45.316 1.47802 37.5028 1.06954 30.4685C1.50414 27.621 3.33278 25.2818 6.02586 24.2867C18.9261 23.4508 32.0376 24.1608 45.0115 23.9234C50.9249 25.3293 49.8538 33.1758 43.8217 33.4014C33.2512 33.133 22.6166 33.7719 12.0532 33.418C11.5237 33.399 11.0487 33.1758 10.5238 33.1687V49.9969H47.8542C48.4004 49.9969 50.0485 51.1796 50.4451 51.6759C52.8414 54.6753 51.1766 58.6437 47.5621 59.4227Z" fill="url(#paint2_linear_1805_340)"/>
<path d="M20.0161 86.1517C14.7178 87.5623 10.3505 81.8413 13.4069 77.1771C14.0529 76.1939 15.682 74.9067 16.8623 74.7049C25.1862 73.2871 26.7346 84.3658 20.0161 86.1517Z" fill="black"/>
<path d="M20.0161 86.1517C14.7178 87.5623 10.3505 81.8413 13.4069 77.1771C14.0529 76.1939 15.682 74.9067 16.8623 74.7049C25.1862 73.2871 26.7346 84.3658 20.0161 86.1517Z" fill="url(#paint3_linear_1805_340)"/>
<path d="M16.4966 47.2254C10.683 45.3897 11.4239 36.7428 17.0998 35.8332C27.2547 34.2041 25.787 50.156 16.4966 47.2254Z" fill="black"/>
<path d="M16.4966 47.2254C10.683 45.3897 11.4239 36.7428 17.0998 35.8332C27.2547 34.2041 25.787 50.156 16.4966 47.2254Z" fill="url(#paint4_linear_1805_340)"/>
<path d="M97.5385 40.1175C97.4126 38.6237 96.211 37.1655 94.6792 36.9732C94.2422 36.9186 93.7197 37.0136 93.2709 36.9732C93.1379 36.8901 93.1403 36.7856 93.126 36.6502C92.8339 34.1566 93.4846 31.6393 92.822 29.0744C90.7298 20.9453 79.6938 19.4111 75.3597 26.6639C73.4361 29.8819 74.1391 33.3112 73.9491 36.8877C73.8541 37.0254 72.612 36.9732 72.2487 37.0563C70.952 37.346 70.0567 38.3221 69.6791 39.5618L69.6957 51.3553C70.1849 52.9441 71.4484 53.8394 73.0941 53.9605H94.1163C95.9188 53.8109 97.3224 52.6425 97.5361 50.8115C97.3224 47.3513 97.8282 43.5397 97.5361 40.1199L97.5385 40.1175ZM85.3056 45.753C85.2249 45.8836 85.023 45.9288 84.9755 46.2185C84.7903 47.318 85.4362 49.0968 84.1776 49.7356C83.7596 49.947 83.4532 49.9328 83.0281 49.7499C81.6317 49.1514 82.5461 47.1993 82.2302 46.1401C82.1233 45.7839 81.4037 45.4158 81.3087 44.6226C81.1425 43.2404 81.4037 41.3144 83.0709 41.0294C85.8827 40.5497 86.5477 43.7415 85.308 45.753H85.3056ZM90.3189 36.4578C90.2952 36.6692 90.2501 36.8283 90.0815 36.9708H77.0411L76.901 36.8307V30.6394C77.7275 23.7357 87.8657 22.6694 89.9675 29.4876C90.4139 30.9339 90.4994 34.9142 90.3189 36.4578Z" fill="black"/>
<path d="M97.5385 40.1175C97.4126 38.6237 96.211 37.1655 94.6792 36.9732C94.2422 36.9186 93.7197 37.0136 93.2709 36.9732C93.1379 36.8901 93.1403 36.7856 93.126 36.6502C92.8339 34.1566 93.4846 31.6393 92.822 29.0744C90.7298 20.9453 79.6938 19.4111 75.3597 26.6639C73.4361 29.8819 74.1391 33.3112 73.9491 36.8877C73.8541 37.0254 72.612 36.9732 72.2487 37.0563C70.952 37.346 70.0567 38.3221 69.6791 39.5618L69.6957 51.3553C70.1849 52.9441 71.4484 53.8394 73.0941 53.9605H94.1163C95.9188 53.8109 97.3224 52.6425 97.5361 50.8115C97.3224 47.3513 97.8282 43.5397 97.5361 40.1199L97.5385 40.1175ZM85.3056 45.753C85.2249 45.8836 85.023 45.9288 84.9755 46.2185C84.7903 47.318 85.4362 49.0968 84.1776 49.7356C83.7596 49.947 83.4532 49.9328 83.0281 49.7499C81.6317 49.1514 82.5461 47.1993 82.2302 46.1401C82.1233 45.7839 81.4037 45.4158 81.3087 44.6226C81.1425 43.2404 81.4037 41.3144 83.0709 41.0294C85.8827 40.5497 86.5477 43.7415 85.308 45.753H85.3056ZM90.3189 36.4578C90.2952 36.6692 90.2501 36.8283 90.0815 36.9708H77.0411L76.901 36.8307V30.6394C77.7275 23.7357 87.8657 22.6694 89.9675 29.4876C90.4139 30.9339 90.4994 34.9142 90.3189 36.4578Z" fill="url(#paint5_linear_1805_340)"/>
<defs>
<linearGradient id="paint0_linear_1805_340" x1="92.6447" y1="19.317" x2="92.6447" y2="68.0604" gradientUnits="userSpaceOnUse">
<stop offset="0.352288" stop-color="#74D6EF"/>
<stop offset="0.709394" stop-color="#01B7E6"/>
</linearGradient>
<linearGradient id="paint1_linear_1805_340" x1="92.6447" y1="19.317" x2="92.6447" y2="68.0604" gradientUnits="userSpaceOnUse">
<stop offset="0.352288" stop-color="#74D6EF"/>
<stop offset="0.709394" stop-color="#01B7E6"/>
</linearGradient>
<linearGradient id="paint2_linear_1805_340" x1="92.6447" y1="19.317" x2="92.6447" y2="68.0604" gradientUnits="userSpaceOnUse">
<stop offset="0.352288" stop-color="#74D6EF"/>
<stop offset="0.709394" stop-color="#01B7E6"/>
</linearGradient>
<linearGradient id="paint3_linear_1805_340" x1="92.6447" y1="19.317" x2="92.6447" y2="68.0604" gradientUnits="userSpaceOnUse">
<stop offset="0.352288" stop-color="#74D6EF"/>
<stop offset="0.709394" stop-color="#01B7E6"/>
</linearGradient>
<linearGradient id="paint4_linear_1805_340" x1="92.6447" y1="19.317" x2="92.6447" y2="68.0604" gradientUnits="userSpaceOnUse">
<stop offset="0.352288" stop-color="#74D6EF"/>
<stop offset="0.709394" stop-color="#01B7E6"/>
</linearGradient>
<linearGradient id="paint5_linear_1805_340" x1="92.6447" y1="19.317" x2="92.6447" y2="68.0604" gradientUnits="userSpaceOnUse">
<stop offset="0.352288" stop-color="#74D6EF"/>
<stop offset="0.709394" stop-color="#01B7E6"/>
</linearGradient>
</defs>
</svg>
