<svg width="125" height="26" viewBox="0 0 125 26" fill="none" xmlns="http://www.w3.org/2000/svg">
<path d="M12.3683 3.5439C12.6318 2.73305 13.7789 2.73305 14.0424 3.5439L15.7741 8.87361C15.8919 9.23624 16.2299 9.48176 16.6111 9.48176H22.2151C23.0677 9.48176 23.4222 10.5728 22.7324 11.0739L18.1987 14.3678C17.8903 14.5919 17.7612 14.9892 17.879 15.3518L19.6107 20.6815C19.8742 21.4924 18.9461 22.1667 18.2564 21.6655L13.7227 18.3716C13.4142 18.1475 12.9965 18.1475 12.688 18.3716L8.1543 21.6655C7.46455 22.1667 6.53649 21.4924 6.79995 20.6815L8.53168 15.3518C8.6495 14.9892 8.52043 14.5919 8.21196 14.3678L3.67824 11.0739C2.98848 10.5728 3.34297 9.48176 4.19555 9.48176H9.79954C10.1808 9.48176 10.5188 9.23624 10.6366 8.87361L12.3683 3.5439Z" fill="#FDD836"/>
<path d="M37.0114 3.5439C37.2748 2.73305 38.422 2.73305 38.6854 3.5439L40.4172 8.87361C40.535 9.23624 40.8729 9.48176 41.2542 9.48176H46.8582C47.7108 9.48176 48.0653 10.5728 47.3755 11.0739L42.8418 14.3678C42.5333 14.5919 42.4042 14.9892 42.5221 15.3518L44.2538 20.6815C44.5173 21.4924 43.5892 22.1667 42.8994 21.6655L38.3657 18.3716C38.0573 18.1475 37.6396 18.1475 37.3311 18.3716L32.7974 21.6655C32.1076 22.1667 31.1796 21.4924 31.443 20.6815L33.1747 15.3518C33.2926 14.9892 33.1635 14.5919 32.855 14.3678L28.3213 11.0739C27.6315 10.5728 27.986 9.48176 28.8386 9.48176H34.4426C34.8239 9.48176 35.1618 9.23624 35.2796 8.87361L37.0114 3.5439Z" fill="#FDD836"/>
<path d="M61.6544 3.5439C61.9179 2.73305 63.065 2.73305 63.3285 3.5439L65.0602 8.87361C65.1781 9.23624 65.516 9.48176 65.8973 9.48176H71.5013C72.3538 9.48176 72.7083 10.5728 72.0186 11.0739L67.4849 14.3678C67.1764 14.5919 67.0473 14.9892 67.1651 15.3518L68.8969 20.6815C69.1603 21.4924 68.2323 22.1667 67.5425 21.6655L63.0088 18.3716C62.7003 18.1475 62.2826 18.1475 61.9742 18.3716L57.4404 21.6655C56.7507 22.1667 55.8226 21.4924 56.0861 20.6815L57.8178 15.3518C57.9356 14.9892 57.8066 14.5919 57.4981 14.3678L52.9644 11.0739C52.2746 10.5728 52.6291 9.48176 53.4817 9.48176H59.0857C59.467 9.48176 59.8049 9.23624 59.9227 8.87361L61.6544 3.5439Z" fill="#FDD836"/>
<path d="M86.2975 3.5439C86.561 2.73305 87.7081 2.73305 87.9716 3.5439L89.7033 8.87361C89.8211 9.23624 90.159 9.48176 90.5403 9.48176H96.1443C96.9969 9.48176 97.3514 10.5728 96.6616 11.0739L92.1279 14.3678C91.8195 14.5919 91.6904 14.9892 91.8082 15.3518L93.5399 20.6815C93.8034 21.4924 92.8753 22.1667 92.1856 21.6655L87.6519 18.3716C87.3434 18.1475 86.9257 18.1475 86.6172 18.3716L82.0835 21.6655C81.3937 22.1667 80.4657 21.4924 80.7291 20.6815L82.4609 15.3518C82.5787 14.9892 82.4496 14.5919 82.1412 14.3678L77.6074 11.0739C76.9177 10.5728 77.2722 9.48176 78.1248 9.48176H83.7287C84.11 9.48176 84.448 9.23624 84.5658 8.87361L86.2975 3.5439Z" fill="#FDD836"/>
<path d="M110.941 3.5439C111.204 2.73305 112.351 2.73305 112.615 3.5439L114.346 8.87361C114.464 9.23624 114.802 9.48176 115.183 9.48176H120.787C121.64 9.48176 121.994 10.5728 121.305 11.0739L116.771 14.3678C116.463 14.5919 116.333 14.9892 116.451 15.3518L118.183 20.6815C118.446 21.4924 117.518 22.1667 116.829 21.6655L112.295 18.3716C111.986 18.1475 111.569 18.1475 111.26 18.3716L106.727 21.6655C106.037 22.1667 105.109 21.4924 105.372 20.6815L107.104 15.3518C107.222 14.9892 107.093 14.5919 106.784 14.3678L102.251 11.0739C101.561 10.5728 101.915 9.48176 102.768 9.48176H108.372C108.753 9.48176 109.091 9.23624 109.209 8.87361L110.941 3.5439Z" fill="#FDD836"/>
</svg>
